{"glyphs":{"0":{"ha":901,"x_min":82,"x_max":821,"o":"m 451 924 q 609 886 540 924 q 725 784 678 849 q 797 635 772 719 q 821 457 821 550 q 796 280 821 365 q 723 128 771 194 q 604 23 675 63 q 442 -17 533 -17 q 284 21 351 -17 q 172 122 217 58 q 105 270 128 186 q 82 447 82 354 q 107 633 82 546 q 179 784 132 719 q 295 886 226 849 q 451 924 364 924 m 444 75 q 563 104 513 75 q 644 185 613 133 q 692 305 676 236 q 707 453 707 374 q 691 607 707 538 q 642 726 675 676 q 561 804 610 776 q 447 832 513 832 q 333 805 381 832 q 255 728 285 778 q 211 611 225 679 q 197 461 197 543 q 262 172 197 269 q 444 75 326 75 z "},"1":{"ha":440,"x_min":35,"x_max":303,"o":"m 303 0 l 199 0 l 199 731 l 65 667 l 35 764 l 303 917 l 303 0 z "},"2":{"ha":707,"x_min":65,"x_max":628,"o":"m 78 856 q 138 882 104 869 q 206 904 171 894 q 278 919 242 914 q 349 924 315 924 q 458 907 408 924 q 544 861 508 890 q 599 790 579 832 q 618 699 618 749 q 575 546 618 621 q 467 397 532 471 q 326 247 403 322 q 183 97 250 172 l 628 97 l 628 0 l 65 0 l 65 97 q 204 255 128 178 q 347 406 281 332 q 458 551 414 479 q 503 697 503 624 q 495 749 503 725 q 469 792 488 774 q 420 822 450 811 q 346 832 390 832 q 281 827 315 832 q 214 813 247 822 q 151 790 181 803 q 103 764 122 778 l 78 856 z "},"3":{"ha":743,"x_min":51,"x_max":664,"o":"m 107 856 q 160 882 131 869 q 222 904 190 894 q 286 919 254 914 q 346 924 318 924 q 544 863 469 924 q 619 685 619 803 q 581 577 619 626 q 488 499 543 528 q 617 415 571 471 q 664 268 664 360 q 643 158 664 210 q 579 68 622 107 q 472 6 536 29 q 322 -17 408 -17 q 173 6 242 -17 q 51 69 104 29 l 79 163 q 188 99 128 122 q 318 75 247 75 q 490 127 431 75 q 549 279 549 179 q 495 405 549 358 q 315 451 442 451 l 278 451 l 278 531 l 321 531 q 456 575 408 531 q 504 696 504 619 q 471 794 504 757 q 354 832 438 832 q 290 826 322 832 q 229 812 258 821 q 174 790 200 803 q 132 764 149 778 l 107 856 z "},"4":{"ha":706,"x_min":43,"x_max":638,"o":"m 638 292 l 542 292 l 542 0 l 438 0 l 438 292 l 43 292 l 43 389 l 431 917 l 542 917 l 542 389 l 638 389 l 638 292 m 438 389 l 438 765 l 161 389 l 438 389 z "},"5":{"ha":747,"x_min":65,"x_max":676,"o":"m 107 440 l 158 924 l 629 924 l 629 826 l 246 826 l 210 531 q 300 547 253 540 q 388 553 347 553 q 503 535 450 553 q 595 485 557 518 q 655 402 633 451 q 676 289 676 353 q 656 172 676 228 q 592 75 635 117 q 486 8 550 33 q 336 -17 422 -17 q 187 6 256 -17 q 65 69 118 29 l 94 167 q 203 101 146 126 q 338 75 260 75 q 503 127 443 75 q 563 279 563 179 q 552 351 563 318 q 516 406 542 383 q 449 442 490 429 q 344 454 407 454 q 244 446 296 454 q 147 419 193 438 l 107 440 z "},"6":{"ha":765,"x_min":88,"x_max":696,"o":"m 190 454 q 232 504 207 485 q 288 535 257 524 q 351 552 318 547 q 418 557 385 557 q 560 527 506 557 q 644 454 614 497 q 685 362 674 411 q 696 275 696 313 q 680 173 696 225 q 628 78 664 121 q 537 10 593 36 q 401 -17 481 -17 q 254 14 314 -17 q 158 101 194 44 q 104 238 121 158 q 88 415 88 317 q 103 602 88 511 q 159 764 119 693 q 265 878 199 835 q 432 922 332 922 q 483 919 454 922 q 543 909 513 917 q 602 888 574 901 q 651 856 631 875 l 628 764 q 528 817 581 803 q 433 832 475 832 q 313 802 361 832 q 237 724 265 772 q 197 616 208 676 q 185 496 185 556 q 185 476 185 485 q 186 456 185 467 l 190 454 m 588 276 q 578 349 588 314 q 549 412 569 385 q 495 456 529 439 q 411 472 461 472 q 258 414 307 472 q 210 268 210 356 q 260 122 210 176 q 401 68 310 68 q 538 123 488 68 q 588 276 588 178 z "},"7":{"ha":635,"x_min":56,"x_max":618,"o":"m 111 0 q 110 27 110 13 q 110 54 110 42 q 147 246 110 142 q 240 455 183 350 q 367 656 297 560 q 503 826 438 753 l 56 826 l 56 924 l 618 924 l 618 826 q 479 658 549 757 q 354 450 410 558 q 265 238 299 342 q 231 56 231 133 q 231 26 231 40 q 232 0 231 13 l 111 0 z "},"8":{"ha":775,"x_min":81,"x_max":694,"o":"m 526 503 q 651 419 607 485 q 694 261 694 354 q 676 152 694 203 q 620 64 658 101 q 524 5 582 26 q 386 -17 465 -17 q 244 6 303 -17 q 150 67 186 29 q 97 156 114 106 q 81 258 81 206 q 125 414 81 350 q 249 501 169 478 l 249 507 q 163 575 200 525 q 126 701 126 625 q 194 863 126 801 q 388 924 263 924 q 579 865 510 924 q 649 706 649 806 q 613 581 649 632 q 526 508 578 531 l 526 503 m 579 251 q 569 327 579 290 q 535 392 558 364 q 474 438 511 421 q 386 456 438 456 q 297 438 333 456 q 237 392 260 421 q 203 327 214 364 q 193 251 193 290 q 242 116 193 164 q 386 68 292 68 q 530 116 481 68 q 579 251 579 164 m 535 696 q 502 795 535 754 q 386 836 469 836 q 271 797 304 836 q 238 696 238 757 q 276 583 238 626 q 386 539 314 539 q 497 583 458 539 q 535 696 535 626 z "},"9":{"ha":767,"x_min":71,"x_max":679,"o":"m 576 451 q 535 401 560 421 q 479 370 510 382 q 415 353 449 358 q 349 349 382 349 q 207 378 261 349 q 123 451 153 408 q 82 544 93 494 q 71 631 71 593 q 87 733 71 681 q 138 827 103 785 q 230 896 174 869 q 365 922 286 922 q 513 892 453 922 q 609 804 572 861 q 663 667 646 747 q 679 490 679 588 q 663 303 679 394 q 608 142 647 213 q 501 27 568 71 q 335 -17 435 -17 q 283 -14 313 -17 q 224 -3 254 -11 q 165 17 193 4 q 115 50 136 31 l 139 142 q 239 88 186 103 q 333 74 292 74 q 453 103 406 74 q 530 181 501 133 q 570 290 558 229 q 582 410 582 350 q 582 430 582 421 q 581 450 582 439 l 576 451 m 179 629 q 188 556 179 592 q 217 494 197 521 q 272 450 238 467 q 356 433 306 433 q 508 492 460 433 q 557 638 557 550 q 507 783 557 729 q 365 838 457 838 q 229 783 279 838 q 179 629 179 728 z "},"A":{"ha":892,"x_min":7,"x_max":903,"o":"m 903 0 l 785 0 l 650 308 l 240 308 l 118 0 l 7 0 l 374 917 l 500 917 l 903 0 m 279 406 l 607 406 l 435 800 l 279 406 z "},"Æ":{"ha":1054,"x_min":-10,"x_max":999,"o":"m 999 0 l 538 0 l 538 308 l 267 308 l 104 0 l -10 0 l 479 917 l 971 917 l 971 819 l 642 819 l 642 535 l 878 535 l 878 438 l 642 438 l 642 97 l 999 97 l 999 0 m 538 406 l 538 817 l 318 406 l 538 406 z "},"Á":{"ha":892,"x_min":7,"x_max":903,"o":"m 903 0 l 785 0 l 650 308 l 240 308 l 118 0 l 7 0 l 374 917 l 500 917 l 903 0 m 279 406 l 607 406 l 435 800 l 279 406 m 306 1001 l 297 1029 l 301 1039 l 551 1178 q 588 1163 575 1176 q 600 1131 600 1150 q 599 1117 600 1124 q 596 1104 599 1111 l 315 997 l 306 1001 z "},"Â":{"ha":892,"x_min":7,"x_max":903,"o":"m 903 0 l 785 0 l 650 308 l 240 308 l 118 0 l 7 0 l 374 917 l 500 917 l 903 0 m 279 406 l 607 406 l 435 800 l 279 406 m 458 1169 l 611 1032 l 615 1022 l 607 994 l 597 990 l 453 1076 l 308 990 l 299 994 l 290 1022 l 294 1032 l 447 1169 l 458 1169 z "},"Ä":{"ha":892,"x_min":7,"x_max":903,"o":"m 903 0 l 785 0 l 650 308 l 240 308 l 118 0 l 7 0 l 374 917 l 500 917 l 903 0 m 279 406 l 607 406 l 435 800 l 279 406 m 283 1103 q 300 1147 283 1128 q 340 1165 317 1165 q 381 1147 364 1165 q 399 1103 399 1128 q 381 1059 399 1076 q 340 1042 364 1042 q 300 1059 317 1042 q 283 1103 283 1076 m 501 1103 q 518 1147 501 1128 q 558 1165 535 1165 q 598 1147 581 1165 q 615 1103 615 1128 q 598 1059 615 1076 q 558 1042 581 1042 q 518 1059 535 1042 q 501 1103 501 1076 z "},"À":{"ha":892,"x_min":7,"x_max":903,"o":"m 903 0 l 785 0 l 650 308 l 240 308 l 118 0 l 7 0 l 374 917 l 500 917 l 903 0 m 279 406 l 607 406 l 435 800 l 279 406 m 582 997 l 303 1104 q 297 1131 297 1117 q 310 1163 297 1150 q 346 1178 322 1176 l 597 1039 l 600 1029 l 593 1001 l 582 997 z "},"Å":{"ha":892,"x_min":7,"x_max":903,"o":"m 436 1086 q 523 1053 490 1086 q 556 976 556 1019 q 542 929 556 950 q 508 896 529 908 l 903 0 l 785 0 l 650 308 l 240 308 l 118 0 l 7 0 l 365 896 q 328 931 342 908 q 315 979 315 953 q 349 1054 315 1022 q 436 1086 382 1086 m 279 406 l 607 406 l 435 800 l 279 406 m 438 908 q 483 929 465 908 q 500 976 500 950 q 481 1024 500 1004 q 435 1044 463 1044 q 387 1026 404 1044 q 369 981 369 1008 q 390 931 369 953 q 438 908 410 908 z "},"Ã":{"ha":892,"x_min":7,"x_max":903,"o":"m 903 0 l 785 0 l 650 308 l 240 308 l 118 0 l 7 0 l 374 917 l 500 917 l 903 0 m 279 406 l 607 406 l 435 800 l 279 406 m 665 1156 q 652 1117 661 1136 q 628 1083 643 1099 q 593 1058 614 1068 q 543 1049 572 1049 q 430 1058 488 1049 q 328 1068 372 1068 q 279 1059 293 1068 q 251 1033 265 1050 l 233 1044 q 249 1082 239 1063 q 273 1116 258 1101 q 309 1140 288 1131 q 360 1150 331 1150 q 420 1147 394 1150 q 468 1140 446 1144 q 511 1133 490 1136 q 558 1131 532 1131 q 606 1136 582 1131 q 649 1167 629 1142 l 665 1156 z "},"B":{"ha":776,"x_min":138,"x_max":708,"o":"m 138 917 q 242 922 182 919 q 351 924 301 924 q 550 863 475 924 q 625 685 625 803 q 602 584 625 629 q 531 507 579 539 q 661 419 614 479 q 708 268 708 360 q 688 158 708 210 q 624 68 667 107 q 517 6 581 29 q 367 -17 453 -17 q 240 -12 299 -17 q 138 0 182 -7 l 138 917 m 363 75 q 534 127 475 75 q 593 279 593 179 q 540 405 593 358 q 360 451 486 451 q 299 451 329 451 q 242 449 269 450 l 242 79 q 363 75 296 75 m 326 531 q 462 575 414 531 q 510 696 510 619 q 476 794 510 757 q 360 832 443 832 q 299 831 329 832 q 242 829 269 831 l 242 532 q 283 531 261 531 q 326 531 304 531 z "},"C":{"ha":892,"x_min":79,"x_max":833,"o":"m 788 764 q 678 813 743 793 q 529 832 613 832 q 372 805 436 832 q 269 729 308 778 q 212 612 229 681 q 194 460 194 543 q 278 172 194 269 q 526 75 361 75 q 688 100 614 75 q 806 161 761 125 l 833 68 q 699 9 778 35 q 522 -17 621 -17 q 325 21 408 -17 q 187 122 242 58 q 106 270 132 186 q 79 449 79 354 q 108 633 79 547 q 195 784 138 719 q 338 886 253 849 q 538 924 424 924 q 688 908 613 924 q 817 864 763 892 l 788 764 z "},"Ç":{"ha":892,"x_min":79,"x_max":833,"o":"m 381 -247 l 399 -215 l 408 -215 q 451 -227 425 -222 q 504 -232 476 -232 q 556 -220 535 -232 q 578 -176 578 -208 q 557 -126 578 -139 q 507 -112 536 -112 q 472 -115 490 -112 q 439 -122 454 -118 l 428 -107 l 488 -15 q 306 30 383 -10 q 178 133 229 69 q 103 277 128 196 q 79 449 79 358 q 108 633 79 547 q 195 784 138 719 q 338 886 253 849 q 538 924 424 924 q 688 908 613 924 q 817 864 763 892 l 788 764 q 678 813 743 793 q 529 832 613 832 q 372 805 436 832 q 269 729 308 778 q 212 612 229 681 q 194 460 194 543 q 278 172 194 269 q 526 75 361 75 q 688 100 614 75 q 806 161 761 125 l 833 68 q 706 11 781 36 q 538 -17 631 -14 l 504 -71 q 528 -67 517 -68 q 550 -65 540 -65 q 629 -94 599 -65 q 660 -165 660 -122 q 649 -210 660 -189 q 617 -247 638 -231 q 569 -272 597 -262 q 508 -282 542 -282 q 442 -274 475 -282 q 382 -256 408 -267 l 381 -247 z "},"D":{"ha":978,"x_min":138,"x_max":899,"o":"m 138 917 l 144 917 q 289 922 211 919 q 440 924 367 924 q 620 896 539 924 q 758 819 701 868 q 865 657 832 753 q 899 449 899 561 q 872 270 899 354 q 791 122 846 186 q 653 21 736 58 q 456 -17 569 -17 q 278 -12 357 -17 q 138 0 200 -7 l 138 917 m 449 832 q 340 831 393 832 q 242 828 286 831 l 242 83 q 451 75 329 75 q 700 172 617 75 q 783 460 783 269 q 766 612 783 543 q 709 729 749 681 q 606 805 669 778 q 449 832 542 832 z "},"E":{"ha":725,"x_min":138,"x_max":668,"o":"m 668 0 l 138 0 l 138 917 l 640 917 l 640 819 l 242 819 l 242 535 l 547 535 l 547 438 l 242 438 l 242 97 l 668 97 l 668 0 z "},"É":{"ha":725,"x_min":138,"x_max":668,"o":"m 668 0 l 138 0 l 138 917 l 640 917 l 640 819 l 242 819 l 242 535 l 547 535 l 547 438 l 242 438 l 242 97 l 668 97 l 668 0 m 256 1001 l 247 1029 l 251 1039 l 503 1178 q 539 1163 526 1176 q 551 1131 551 1150 q 546 1104 551 1117 l 265 997 l 256 1001 z "},"Ê":{"ha":725,"x_min":138,"x_max":668,"o":"m 668 0 l 138 0 l 138 917 l 640 917 l 640 819 l 242 819 l 242 535 l 547 535 l 547 438 l 242 438 l 242 97 l 668 97 l 668 0 m 404 1169 l 557 1032 l 561 1022 l 553 994 l 543 990 l 399 1076 l 254 990 l 244 994 l 236 1022 l 240 1032 l 393 1169 l 404 1169 z "},"Ë":{"ha":725,"x_min":138,"x_max":668,"o":"m 668 0 l 138 0 l 138 917 l 640 917 l 640 819 l 242 819 l 242 535 l 547 535 l 547 438 l 242 438 l 242 97 l 668 97 l 668 0 m 438 1103 q 454 1147 438 1128 q 494 1165 471 1165 q 535 1147 518 1165 q 553 1103 553 1128 q 535 1059 553 1076 q 494 1042 518 1042 q 454 1059 471 1042 q 438 1103 438 1076 m 219 1103 q 236 1147 219 1128 q 276 1165 253 1165 q 317 1147 300 1165 q 335 1103 335 1128 q 317 1059 335 1076 q 276 1042 300 1042 q 236 1059 253 1042 q 219 1103 219 1076 z "},"È":{"ha":725,"x_min":138,"x_max":668,"o":"m 668 0 l 138 0 l 138 917 l 640 917 l 640 819 l 242 819 l 242 535 l 547 535 l 547 438 l 242 438 l 242 97 l 668 97 l 668 0 m 518 997 l 239 1104 q 233 1131 233 1117 q 246 1163 233 1150 q 282 1178 258 1176 l 533 1039 l 538 1029 l 529 1001 l 518 997 z "},"Ð":{"ha":981,"x_min":19,"x_max":901,"o":"m 19 453 l 19 514 l 140 514 l 140 917 l 147 917 q 292 922 214 919 q 443 924 369 924 q 623 896 542 924 q 761 819 704 868 q 868 657 835 753 q 901 449 901 561 q 875 270 901 354 q 794 122 849 186 q 656 21 739 58 q 458 -17 572 -17 q 281 -12 360 -17 q 140 0 203 -7 l 140 453 l 19 453 m 488 514 l 488 453 l 244 453 l 244 83 q 454 75 332 75 q 703 172 619 75 q 786 460 786 269 q 769 612 786 543 q 712 729 751 681 q 608 805 672 778 q 451 832 544 832 q 342 831 396 832 q 244 828 289 831 l 244 514 l 488 514 z "},"€":{"ha":865,"x_min":58,"x_max":801,"o":"m 175 572 q 219 713 189 649 q 296 824 249 776 q 406 897 343 871 q 547 924 468 924 q 675 908 610 924 q 785 864 740 892 l 756 764 q 664 813 718 793 q 539 832 610 832 q 435 814 479 832 q 360 762 390 796 q 313 680 331 728 q 286 572 294 632 l 640 572 l 640 500 l 279 500 l 279 426 l 640 426 l 640 354 l 285 354 q 536 75 321 75 q 673 100 611 75 q 774 161 735 125 l 801 68 q 685 9 753 35 q 532 -17 618 -17 q 387 12 450 -17 q 278 90 324 40 q 206 208 233 140 q 169 354 179 276 l 58 354 l 58 426 l 164 426 q 164 463 164 442 q 165 500 164 485 l 58 500 l 58 572 l 175 572 z "},"F":{"ha":667,"x_min":138,"x_max":633,"o":"m 532 438 l 242 438 l 242 0 l 138 0 l 138 917 l 633 917 l 633 819 l 242 819 l 242 535 l 532 535 l 532 438 z "},"G":{"ha":933,"x_min":79,"x_max":843,"o":"m 843 76 q 701 9 781 35 q 522 -17 621 -17 q 325 21 408 -17 q 187 122 242 58 q 106 270 132 186 q 79 449 79 354 q 108 633 79 547 q 195 784 138 719 q 338 886 253 849 q 538 924 424 924 q 694 908 618 924 q 831 864 771 892 l 801 764 q 687 813 757 793 q 529 832 617 832 q 372 805 436 832 q 269 729 308 778 q 212 612 229 681 q 194 460 194 543 q 278 172 194 269 q 526 75 361 75 q 641 88 588 75 q 739 119 694 100 l 739 378 l 843 378 l 843 76 z "},"H":{"ha":978,"x_min":138,"x_max":840,"o":"m 242 521 l 736 521 l 736 917 l 840 917 l 840 0 l 736 0 l 736 424 l 242 424 l 242 0 l 138 0 l 138 917 l 242 917 l 242 521 z "},"I":{"ha":379,"x_min":138,"x_max":242,"o":"m 242 0 l 138 0 l 138 917 l 242 917 l 242 0 z "},"Í":{"ha":379,"x_min":49,"x_max":353,"o":"m 57 1001 l 49 1029 l 53 1039 l 304 1178 q 340 1163 328 1176 q 353 1131 353 1150 q 347 1104 353 1117 l 68 997 l 57 1001 m 242 0 l 138 0 l 138 917 l 242 917 l 242 0 z "},"Î":{"ha":379,"x_min":25,"x_max":350,"o":"m 192 1169 l 346 1032 l 350 1022 l 342 994 l 331 990 l 188 1076 l 43 990 l 32 994 l 25 1022 l 29 1032 l 182 1169 l 192 1169 m 242 0 l 138 0 l 138 917 l 242 917 l 242 0 z "},"Ï":{"ha":379,"x_min":26,"x_max":360,"o":"m 26 1103 q 43 1147 26 1128 q 83 1165 60 1165 q 124 1147 107 1165 q 142 1103 142 1128 q 124 1059 142 1076 q 83 1042 107 1042 q 43 1059 60 1042 q 26 1103 26 1076 m 244 1103 q 261 1147 244 1128 q 301 1165 278 1165 q 342 1147 325 1165 q 360 1103 360 1128 q 342 1059 360 1076 q 301 1042 325 1042 q 261 1059 278 1042 q 244 1103 244 1076 m 242 0 l 138 0 l 138 917 l 242 917 l 242 0 z "},"Ì":{"ha":379,"x_min":21,"x_max":325,"o":"m 307 997 l 26 1104 q 21 1131 21 1117 q 33 1163 21 1150 q 69 1178 46 1176 l 321 1039 l 325 1029 l 317 1001 l 307 997 m 242 0 l 138 0 l 138 917 l 242 917 l 242 0 z "},"J":{"ha":378,"x_min":-19,"x_max":242,"o":"m 242 140 q 227 2 242 67 q 183 -111 213 -62 q 108 -188 153 -160 q 0 -217 63 -217 l -19 -140 q 67 -114 35 -140 q 114 -47 99 -87 q 133 44 129 -6 q 138 142 138 94 l 138 917 l 242 917 l 242 140 z "},"K":{"ha":831,"x_min":138,"x_max":825,"o":"m 242 483 q 312 536 281 510 q 383 601 343 563 q 521 751 451 668 q 649 917 590 833 l 768 917 q 695 817 735 868 q 614 717 656 767 q 531 624 572 668 q 454 543 490 579 q 426 515 439 528 q 400 492 413 503 l 825 0 l 696 0 l 324 425 l 242 363 l 242 0 l 138 0 l 138 917 l 242 917 l 242 483 z "},"L":{"ha":675,"x_min":138,"x_max":651,"o":"m 651 0 l 138 0 l 138 917 l 242 917 l 242 97 l 651 97 l 651 0 z "},"M":{"ha":1171,"x_min":138,"x_max":1033,"o":"m 589 131 l 900 917 l 1033 917 l 1033 0 l 929 0 l 929 693 l 649 0 l 524 0 l 242 694 l 242 0 l 138 0 l 138 917 l 278 917 l 589 131 z "},"N":{"ha":978,"x_min":138,"x_max":840,"o":"m 242 750 l 242 0 l 138 0 l 138 917 l 264 917 l 736 165 l 736 917 l 840 917 l 840 0 l 714 0 l 242 750 z "},"Ñ":{"ha":978,"x_min":138,"x_max":840,"o":"m 736 163 l 736 917 l 840 917 l 840 0 l 722 0 l 242 753 l 242 0 l 138 0 l 138 917 l 256 917 l 736 163 m 686 1156 q 673 1117 682 1136 q 649 1083 664 1099 q 614 1058 635 1068 q 564 1049 593 1049 q 451 1058 508 1049 q 349 1068 393 1068 q 300 1059 314 1068 q 272 1033 286 1050 l 254 1044 q 269 1082 260 1063 q 294 1116 279 1101 q 330 1140 308 1131 q 381 1150 351 1150 q 441 1147 415 1150 q 489 1140 467 1144 q 532 1133 511 1136 q 579 1131 553 1131 q 626 1136 603 1131 q 669 1167 650 1142 l 686 1156 z "},"O":{"ha":1050,"x_min":78,"x_max":972,"o":"m 525 924 q 717 886 633 924 q 857 784 800 849 q 943 635 914 719 q 972 457 972 550 q 944 280 972 365 q 858 128 915 194 q 715 23 800 63 q 515 -17 629 -17 q 322 21 404 -17 q 186 122 240 58 q 105 270 132 186 q 78 447 78 354 q 108 633 78 546 q 194 784 138 719 q 335 886 251 849 q 525 924 418 924 m 518 75 q 673 104 608 75 q 778 185 738 133 q 839 305 819 236 q 858 453 858 374 q 838 607 858 538 q 777 726 818 676 q 672 804 736 776 q 521 832 608 832 q 369 805 432 832 q 268 728 307 778 q 211 611 229 679 q 193 461 193 543 q 276 172 193 269 q 518 75 360 75 z "},"Œ":{"ha":1186,"x_min":78,"x_max":1129,"o":"m 1129 0 l 649 0 q 515 -17 588 -17 q 322 21 404 -17 q 186 122 240 58 q 105 270 132 186 q 78 447 78 354 q 108 633 78 546 q 194 784 138 719 q 335 886 251 849 q 525 924 418 924 q 576 922 551 924 q 625 917 601 919 l 1101 917 l 1101 819 l 729 819 l 729 535 l 1008 535 l 1008 438 l 729 438 l 729 97 l 1129 97 l 1129 0 m 518 75 q 625 88 576 75 l 625 819 q 521 832 576 832 q 369 805 432 832 q 268 728 307 778 q 211 611 229 679 q 193 461 193 543 q 276 172 193 269 q 518 75 360 75 z "},"Ó":{"ha":1050,"x_min":78,"x_max":972,"o":"m 433 1001 l 426 1029 l 431 1039 l 681 1178 q 717 1163 704 1176 q 729 1131 729 1150 q 725 1104 729 1118 l 444 997 l 433 1001 m 525 924 q 717 886 633 924 q 857 784 800 849 q 943 635 914 719 q 972 457 972 550 q 944 280 972 365 q 858 128 915 194 q 715 23 800 63 q 515 -17 629 -17 q 322 21 404 -17 q 186 122 240 58 q 105 270 132 186 q 78 447 78 354 q 108 633 78 546 q 194 784 138 719 q 335 886 251 849 q 525 924 418 924 m 518 75 q 673 104 608 75 q 778 185 738 133 q 839 305 819 236 q 858 453 858 374 q 838 607 858 538 q 777 726 818 676 q 672 804 736 776 q 521 832 608 832 q 369 805 432 832 q 268 728 307 778 q 211 611 229 679 q 193 461 193 543 q 276 172 193 269 q 518 75 360 75 z "},"Ô":{"ha":1050,"x_min":78,"x_max":972,"o":"m 544 1169 l 697 1032 l 701 1022 l 693 994 l 683 990 l 539 1076 l 394 990 l 385 994 l 376 1022 l 381 1032 l 533 1169 l 544 1169 m 525 924 q 717 886 633 924 q 857 784 800 849 q 943 635 914 719 q 972 457 972 550 q 944 280 972 365 q 858 128 915 194 q 715 23 800 63 q 515 -17 629 -17 q 322 21 404 -17 q 186 122 240 58 q 105 270 132 186 q 78 447 78 354 q 108 633 78 546 q 194 784 138 719 q 335 886 251 849 q 525 924 418 924 m 518 75 q 673 104 608 75 q 778 185 738 133 q 839 305 819 236 q 858 453 858 374 q 838 607 858 538 q 777 726 818 676 q 672 804 736 776 q 521 832 608 832 q 369 805 432 832 q 268 728 307 778 q 211 611 229 679 q 193 461 193 543 q 276 172 193 269 q 518 75 360 75 z "},"Ö":{"ha":1050,"x_min":78,"x_max":972,"o":"m 360 1103 q 376 1147 360 1128 q 417 1165 393 1165 q 458 1147 440 1165 q 475 1103 475 1128 q 458 1059 475 1076 q 417 1042 440 1042 q 376 1059 393 1042 q 360 1103 360 1076 m 578 1103 q 594 1147 578 1128 q 635 1165 611 1165 q 676 1147 658 1165 q 693 1103 693 1128 q 676 1059 693 1076 q 635 1042 658 1042 q 594 1059 611 1042 q 578 1103 578 1076 m 525 924 q 717 886 633 924 q 857 784 800 849 q 943 635 914 719 q 972 457 972 550 q 944 280 972 365 q 858 128 915 194 q 715 23 800 63 q 515 -17 629 -17 q 322 21 404 -17 q 186 122 240 58 q 105 270 132 186 q 78 447 78 354 q 108 633 78 546 q 194 784 138 719 q 335 886 251 849 q 525 924 418 924 m 518 75 q 673 104 608 75 q 778 185 738 133 q 839 305 819 236 q 858 453 858 374 q 838 607 858 538 q 777 726 818 676 q 672 804 736 776 q 521 832 608 832 q 369 805 432 832 q 268 728 307 778 q 211 611 229 679 q 193 461 193 543 q 276 172 193 269 q 518 75 360 75 z "},"Ò":{"ha":1050,"x_min":78,"x_max":972,"o":"m 618 997 l 339 1104 q 333 1131 333 1117 q 346 1163 333 1150 q 382 1178 358 1176 l 632 1039 l 636 1029 l 629 1001 l 618 997 m 525 924 q 717 886 633 924 q 857 784 800 849 q 943 635 914 719 q 972 457 972 550 q 944 280 972 365 q 858 128 915 194 q 715 23 800 63 q 515 -17 629 -17 q 322 21 404 -17 q 186 122 240 58 q 105 270 132 186 q 78 447 78 354 q 108 633 78 546 q 194 784 138 719 q 335 886 251 849 q 525 924 418 924 m 518 75 q 673 104 608 75 q 778 185 738 133 q 839 305 819 236 q 858 453 858 374 q 838 607 858 538 q 777 726 818 676 q 672 804 736 776 q 521 832 608 832 q 369 805 432 832 q 268 728 307 778 q 211 611 229 679 q 193 461 193 543 q 276 172 193 269 q 518 75 360 75 z "},"Ø":{"ha":1050,"x_min":79,"x_max":974,"o":"m 181 129 q 104 274 129 193 q 79 447 79 356 q 109 633 79 546 q 196 784 139 719 q 336 886 253 849 q 526 924 419 924 q 669 904 604 924 q 785 849 733 885 l 875 954 l 946 900 l 853 789 q 943 638 913 724 q 974 457 974 553 q 945 280 974 365 q 859 128 917 194 q 716 23 801 63 q 517 -17 631 -17 q 365 5 432 -17 q 244 67 297 26 l 147 -49 l 81 11 l 181 129 m 519 75 q 674 104 610 75 q 780 185 739 133 q 840 305 821 236 q 860 453 860 374 q 789 714 860 614 l 308 142 q 519 75 388 75 m 194 461 q 250 213 194 306 l 725 776 q 522 832 646 832 q 371 805 433 832 q 269 728 308 778 q 213 611 231 679 q 194 461 194 543 z "},"Õ":{"ha":1050,"x_min":78,"x_max":972,"o":"m 743 1156 q 730 1117 739 1136 q 706 1083 721 1099 q 671 1058 692 1068 q 621 1049 650 1049 q 508 1058 565 1049 q 406 1068 450 1068 q 357 1059 371 1068 q 329 1033 343 1050 l 311 1044 q 326 1082 317 1063 q 351 1116 336 1101 q 387 1140 365 1131 q 438 1150 408 1150 q 498 1147 472 1150 q 546 1140 524 1144 q 589 1133 568 1136 q 636 1131 610 1131 q 683 1136 660 1131 q 726 1167 707 1142 l 743 1156 m 525 924 q 717 886 633 924 q 857 784 800 849 q 943 635 914 719 q 972 457 972 550 q 944 280 972 365 q 858 128 915 194 q 715 23 800 63 q 515 -17 629 -17 q 322 21 404 -17 q 186 122 240 58 q 105 270 132 186 q 78 447 78 354 q 108 633 78 546 q 194 784 138 719 q 335 886 251 849 q 525 924 418 924 m 518 75 q 673 104 608 75 q 778 185 738 133 q 839 305 819 236 q 858 453 858 374 q 838 607 858 538 q 777 726 818 676 q 672 804 736 776 q 521 832 608 832 q 369 805 432 832 q 268 728 307 778 q 211 611 229 679 q 193 461 193 543 q 276 172 193 269 q 518 75 360 75 z "},"P":{"ha":735,"x_min":138,"x_max":678,"o":"m 138 917 l 143 917 q 242 922 188 919 q 344 924 296 924 q 481 905 419 924 q 585 849 542 886 q 653 756 629 811 q 678 629 678 701 q 658 519 678 571 q 600 429 639 468 q 501 367 561 390 q 360 344 440 344 q 242 349 293 344 l 242 0 l 138 0 l 138 917 m 353 832 q 295 831 324 832 q 242 829 267 831 l 242 440 q 356 436 292 436 q 510 488 458 436 q 563 640 563 540 q 551 719 563 683 q 516 779 540 754 q 451 818 492 804 q 353 832 411 832 z "},"Q":{"ha":1054,"x_min":81,"x_max":1050,"o":"m 528 924 q 719 886 636 924 q 860 784 803 849 q 946 635 917 719 q 975 457 975 550 q 948 285 975 368 q 867 137 921 201 q 733 31 814 72 q 546 -15 653 -10 q 641 -38 594 -21 q 735 -74 688 -56 q 831 -106 782 -92 q 932 -121 879 -121 q 1050 -94 988 -121 l 1024 -183 q 971 -201 997 -197 q 921 -206 944 -206 q 807 -186 863 -206 q 699 -144 751 -167 q 598 -101 647 -121 q 503 -82 549 -82 q 422 -94 469 -82 q 332 -139 375 -107 l 313 -74 q 392 -32 349 -46 q 475 -15 435 -18 q 301 32 375 -8 q 178 135 228 72 q 105 278 129 197 q 81 447 81 358 q 110 633 81 546 q 197 784 140 719 q 338 886 254 849 q 528 924 421 924 m 524 75 q 677 104 613 75 q 782 185 742 133 q 842 306 822 236 q 861 457 861 376 q 841 609 861 540 q 779 727 821 678 q 674 804 738 776 q 521 832 610 832 q 372 805 433 832 q 271 728 310 778 q 214 609 232 678 q 196 457 196 540 q 280 172 196 268 q 524 75 364 75 z "},"R":{"ha":826,"x_min":138,"x_max":825,"o":"m 138 917 q 241 922 186 919 q 344 924 296 924 q 481 906 419 924 q 585 856 542 889 q 653 773 629 822 q 678 660 678 724 q 628 501 678 571 q 474 404 578 432 l 825 0 l 696 0 l 353 392 q 242 396 292 392 l 242 0 l 138 0 l 138 917 m 353 832 q 295 831 324 832 q 242 829 267 831 l 242 486 q 295 483 267 483 q 356 483 324 483 q 510 531 458 483 q 563 671 563 579 q 516 788 563 743 q 353 832 469 832 z "},"S":{"ha":765,"x_min":68,"x_max":701,"o":"m 192 696 q 205 638 192 661 q 247 597 218 615 q 319 563 275 579 q 424 526 363 547 q 525 488 475 510 q 615 435 575 467 q 678 358 654 404 q 701 244 701 311 q 674 124 701 174 q 600 42 646 74 q 494 -3 554 11 q 371 -17 435 -17 q 203 6 281 -17 q 68 60 125 28 l 97 161 q 150 127 124 143 q 208 100 176 111 q 276 82 239 89 q 363 75 314 75 q 469 86 425 75 q 542 117 514 97 q 582 165 569 138 q 594 225 594 193 q 572 305 594 272 q 515 361 550 338 q 437 401 479 385 q 353 431 394 417 q 244 472 293 450 q 162 525 196 494 q 109 596 128 556 q 90 692 90 636 q 113 798 90 754 q 176 869 136 842 q 269 910 215 897 q 386 924 324 924 q 531 908 461 924 q 649 871 600 893 l 619 764 q 567 797 597 783 q 505 817 538 810 q 440 828 472 825 q 381 832 408 832 q 242 799 293 832 q 192 696 192 767 z "},"Š":{"ha":765,"x_min":68,"x_max":701,"o":"m 381 990 l 226 1128 l 224 1138 l 231 1165 l 242 1169 l 385 1083 l 529 1169 l 540 1165 l 547 1138 l 544 1128 l 390 990 l 381 990 m 192 696 q 205 638 192 661 q 247 597 218 615 q 319 563 275 579 q 424 526 363 547 q 525 488 475 510 q 615 435 575 467 q 678 358 654 404 q 701 244 701 311 q 674 124 701 174 q 600 42 646 74 q 494 -3 554 11 q 371 -17 435 -17 q 203 6 281 -17 q 68 60 125 28 l 97 161 q 150 127 124 143 q 208 100 176 111 q 276 82 239 89 q 363 75 314 75 q 469 86 425 75 q 542 117 514 97 q 582 165 569 138 q 594 225 594 193 q 572 305 594 272 q 515 361 550 338 q 437 401 479 385 q 353 431 394 417 q 244 472 293 450 q 162 525 196 494 q 109 596 128 556 q 90 692 90 636 q 113 798 90 754 q 176 869 136 842 q 269 910 215 897 q 386 924 324 924 q 531 908 461 924 q 649 871 600 893 l 619 764 q 567 797 597 783 q 505 817 538 810 q 440 828 472 825 q 381 832 408 832 q 242 799 293 832 q 192 696 192 767 z "},"T":{"ha":740,"x_min":25,"x_max":715,"o":"m 715 819 l 422 819 l 422 0 l 318 0 l 318 819 l 25 819 l 25 917 l 715 917 l 715 819 z "},"Þ":{"ha":721,"x_min":138,"x_max":663,"o":"m 235 740 q 290 742 263 742 q 336 743 318 743 q 574 672 486 743 q 663 465 663 600 q 645 359 663 408 q 590 272 628 310 q 490 213 551 235 q 343 192 429 192 q 293 192 324 192 q 235 196 263 193 l 235 0 l 138 0 l 138 917 l 235 917 l 235 740 m 339 651 q 291 651 321 651 q 235 649 261 650 l 235 289 q 291 285 261 286 q 338 283 321 283 q 497 330 446 283 q 547 474 547 376 q 537 548 547 515 q 502 603 526 581 q 438 639 478 626 q 339 651 399 651 z "},"U":{"ha":956,"x_min":128,"x_max":828,"o":"m 232 356 q 298 140 232 206 q 481 75 364 75 q 664 140 597 75 q 731 356 731 206 l 731 917 l 828 917 l 828 308 q 807 181 828 240 q 743 78 786 122 q 635 10 700 35 q 481 -15 569 -15 q 316 10 383 -15 q 207 78 249 35 q 147 181 165 122 q 128 308 128 240 l 128 917 l 232 917 l 232 356 z "},"Ú":{"ha":956,"x_min":128,"x_max":828,"o":"m 354 1001 l 346 1029 l 350 1039 l 601 1178 q 638 1163 625 1176 q 650 1131 650 1150 q 644 1104 650 1117 l 365 997 l 354 1001 m 232 356 q 298 140 232 206 q 481 75 364 75 q 664 140 597 75 q 731 356 731 206 l 731 917 l 828 917 l 828 308 q 807 181 828 240 q 743 78 786 122 q 635 10 700 35 q 481 -15 569 -15 q 316 10 383 -15 q 207 78 249 35 q 147 181 165 122 q 128 308 128 240 l 128 917 l 232 917 l 232 356 z "},"Û":{"ha":956,"x_min":128,"x_max":828,"o":"m 478 1169 l 632 1032 l 635 1022 l 628 994 l 617 990 l 474 1076 l 329 990 l 318 994 l 311 1022 l 314 1032 l 468 1169 l 478 1169 m 232 356 q 298 140 232 206 q 481 75 364 75 q 664 140 597 75 q 731 356 731 206 l 731 917 l 828 917 l 828 308 q 807 181 828 240 q 743 78 786 122 q 635 10 700 35 q 481 -15 569 -15 q 316 10 383 -15 q 207 78 249 35 q 147 181 165 122 q 128 308 128 240 l 128 917 l 232 917 l 232 356 z "},"Ü":{"ha":956,"x_min":128,"x_max":828,"o":"m 328 1103 q 344 1147 328 1128 q 385 1165 361 1165 q 426 1147 408 1165 q 443 1103 443 1128 q 426 1059 443 1076 q 385 1042 408 1042 q 344 1059 361 1042 q 328 1103 328 1076 m 546 1103 q 563 1147 546 1128 q 603 1165 579 1165 q 644 1147 626 1165 q 661 1103 661 1128 q 644 1059 661 1076 q 603 1042 626 1042 q 563 1059 579 1042 q 546 1103 546 1076 m 232 356 q 298 140 232 206 q 481 75 364 75 q 664 140 597 75 q 731 356 731 206 l 731 917 l 828 917 l 828 308 q 807 181 828 240 q 743 78 786 122 q 635 10 700 35 q 481 -15 569 -15 q 316 10 383 -15 q 207 78 249 35 q 147 181 165 122 q 128 308 128 240 l 128 917 l 232 917 l 232 356 z "},"Ù":{"ha":956,"x_min":128,"x_max":828,"o":"m 592 997 l 313 1104 q 307 1131 307 1117 q 319 1163 307 1150 q 356 1178 332 1176 l 607 1039 l 610 1029 l 603 1001 l 592 997 m 232 356 q 298 140 232 206 q 481 75 364 75 q 664 140 597 75 q 731 356 731 206 l 731 917 l 828 917 l 828 308 q 807 181 828 240 q 743 78 786 122 q 635 10 700 35 q 481 -15 569 -15 q 316 10 383 -15 q 207 78 249 35 q 147 181 165 122 q 128 308 128 240 l 128 917 l 232 917 l 232 356 z "},"V":{"ha":894,"x_min":-10,"x_max":886,"o":"m -10 917 l 108 917 l 457 117 l 775 917 l 886 917 l 522 0 l 390 0 l -10 917 z "},"W":{"ha":1501,"x_min":-1,"x_max":1486,"o":"m 750 758 l 492 0 l 360 0 l -1 917 l 117 917 l 425 132 l 693 917 l 811 917 l 1096 135 l 1375 917 l 1486 917 l 1160 0 l 1028 0 l 750 758 z "},"X":{"ha":897,"x_min":21,"x_max":875,"o":"m 444 396 l 140 0 l 21 0 l 385 474 l 42 917 l 165 917 l 451 546 l 738 917 l 857 917 l 511 468 l 875 0 l 751 0 l 444 396 z "},"Y":{"ha":786,"x_min":-15,"x_max":800,"o":"m -15 917 l 108 917 l 399 476 l 679 917 l 800 917 l 446 376 l 446 0 l 342 0 l 342 371 l -15 917 z "},"Ý":{"ha":786,"x_min":-15,"x_max":800,"o":"m 306 1001 l 299 1029 l 303 1039 l 553 1178 q 589 1163 576 1176 q 601 1131 601 1150 q 597 1104 601 1118 l 317 997 l 306 1001 m -15 917 l 108 917 l 399 476 l 679 917 l 800 917 l 446 376 l 446 0 l 342 0 l 342 371 l -15 917 z "},"Ÿ":{"ha":786,"x_min":-15,"x_max":800,"o":"m 232 1103 q 249 1147 232 1128 q 289 1165 265 1165 q 328 1147 311 1165 q 346 1103 346 1128 q 328 1059 346 1076 q 289 1042 311 1042 q 249 1059 265 1042 q 232 1103 232 1076 m 450 1103 q 466 1147 450 1128 q 506 1165 482 1165 q 547 1147 529 1165 q 564 1103 564 1128 q 547 1059 564 1076 q 506 1042 529 1042 q 466 1059 482 1042 q 450 1103 450 1076 m -15 917 l 108 917 l 399 476 l 679 917 l 800 917 l 446 376 l 446 0 l 342 0 l 342 371 l -15 917 z "},"Z":{"ha":769,"x_min":60,"x_max":710,"o":"m 710 0 l 60 0 l 60 97 l 571 819 l 81 819 l 81 917 l 689 917 l 689 819 l 178 97 l 710 97 l 710 0 z "},"Ž":{"ha":769,"x_min":60,"x_max":710,"o":"m 375 990 l 222 1128 l 218 1138 l 226 1165 l 238 1169 l 381 1083 l 525 1169 l 535 1165 l 543 1138 l 539 1128 l 386 990 l 375 990 m 710 0 l 60 0 l 60 97 l 571 819 l 81 819 l 81 917 l 689 917 l 689 819 l 178 97 l 710 97 l 710 0 z "},"a":{"ha":692,"x_min":56,"x_max":590,"o":"m 514 0 l 503 114 l 497 114 q 453 64 481 88 q 391 22 425 40 q 317 -6 357 4 q 239 -17 278 -17 q 101 37 147 -17 q 56 171 56 90 q 96 297 56 250 q 194 368 136 344 q 317 399 253 392 q 431 406 382 406 l 493 406 l 493 422 q 478 503 493 475 q 436 550 464 531 q 385 572 413 565 q 314 578 358 578 q 211 563 256 578 q 125 522 167 547 l 103 606 q 325 660 196 660 q 422 651 376 660 q 503 619 468 642 q 567 549 543 594 q 590 435 590 503 l 590 0 l 514 0 m 268 65 q 389 101 325 65 q 493 206 453 138 l 493 335 l 481 335 q 367 331 424 335 q 263 310 310 326 q 188 262 217 293 q 158 176 158 231 q 188 94 158 122 q 268 65 218 65 z "},"á":{"ha":692,"x_min":56,"x_max":590,"o":"m 257 767 l 249 794 l 253 804 l 503 944 q 540 929 526 943 q 553 896 553 915 q 547 869 553 882 l 267 763 l 257 767 m 514 0 l 503 114 l 497 114 q 453 64 481 88 q 391 22 425 40 q 317 -6 357 4 q 239 -17 278 -17 q 101 37 147 -17 q 56 171 56 90 q 96 297 56 250 q 194 368 136 344 q 317 399 253 392 q 431 406 382 406 l 493 406 l 493 422 q 478 503 493 475 q 436 550 464 531 q 385 572 413 565 q 314 578 358 578 q 211 563 256 578 q 125 522 167 547 l 103 606 q 325 660 196 660 q 422 651 376 660 q 503 619 468 642 q 567 549 543 594 q 590 435 590 503 l 590 0 l 514 0 m 268 65 q 389 101 325 65 q 493 206 453 138 l 493 335 l 481 335 q 367 331 424 335 q 263 310 310 326 q 188 262 217 293 q 158 176 158 231 q 188 94 158 122 q 268 65 218 65 z "},"â":{"ha":692,"x_min":56,"x_max":590,"o":"m 339 935 l 492 797 l 496 788 l 488 761 l 478 757 l 333 842 l 190 757 l 179 761 l 171 788 l 175 797 l 328 935 l 339 935 m 514 0 l 503 114 l 497 114 q 453 64 481 88 q 391 22 425 40 q 317 -6 357 4 q 239 -17 278 -17 q 101 37 147 -17 q 56 171 56 90 q 96 297 56 250 q 194 368 136 344 q 317 399 253 392 q 431 406 382 406 l 493 406 l 493 422 q 478 503 493 475 q 436 550 464 531 q 385 572 413 565 q 314 578 358 578 q 211 563 256 578 q 125 522 167 547 l 103 606 q 325 660 196 660 q 422 651 376 660 q 503 619 468 642 q 567 549 543 594 q 590 435 590 503 l 590 0 l 514 0 m 268 65 q 389 101 325 65 q 493 206 453 138 l 493 335 l 481 335 q 367 331 424 335 q 263 310 310 326 q 188 262 217 293 q 158 176 158 231 q 188 94 158 122 q 268 65 218 65 z "},"´":{"ha":304,"x_min":0,"x_max":304,"o":"m 8 767 l 0 794 l 4 804 l 254 944 q 291 929 278 943 q 304 896 304 915 q 299 869 304 882 l 18 763 l 8 767 z "},"ä":{"ha":692,"x_min":56,"x_max":590,"o":"m 181 869 q 197 913 181 894 q 238 932 214 932 q 277 913 260 932 q 294 869 294 894 q 277 826 294 843 q 238 808 260 808 q 197 826 214 808 q 181 869 181 843 m 399 869 q 415 913 399 894 q 454 932 431 932 q 495 913 478 932 q 513 869 513 894 q 495 826 513 843 q 454 808 478 808 q 415 826 431 808 q 399 869 399 843 m 514 0 l 503 114 l 497 114 q 453 64 481 88 q 391 22 425 40 q 317 -6 357 4 q 239 -17 278 -17 q 101 37 147 -17 q 56 171 56 90 q 96 297 56 250 q 194 368 136 344 q 317 399 253 392 q 431 406 382 406 l 493 406 l 493 422 q 478 503 493 475 q 436 550 464 531 q 385 572 413 565 q 314 578 358 578 q 211 563 256 578 q 125 522 167 547 l 103 606 q 325 660 196 660 q 422 651 376 660 q 503 619 468 642 q 567 549 543 594 q 590 435 590 503 l 590 0 l 514 0 m 268 65 q 389 101 325 65 q 493 206 453 138 l 493 335 l 481 335 q 367 331 424 335 q 263 310 310 326 q 188 262 217 293 q 158 176 158 231 q 188 94 158 122 q 268 65 218 65 z "},"æ":{"ha":1138,"x_min":56,"x_max":1071,"o":"m 565 550 q 671 628 606 597 q 815 660 736 660 q 1004 598 938 660 q 1071 424 1071 536 q 1068 376 1071 400 q 1058 340 1065 351 l 590 340 l 590 315 q 606 217 592 264 q 648 134 619 169 q 718 78 676 99 q 817 57 760 57 q 942 81 883 57 q 1040 132 1001 104 l 1058 58 q 1014 34 1040 47 q 956 10 988 21 q 885 -9 924 -1 q 806 -17 847 -17 q 646 22 713 -17 q 539 122 579 60 l 533 122 q 398 15 478 46 q 239 -17 318 -17 q 101 37 147 -17 q 56 171 56 90 q 96 297 56 250 q 194 368 136 344 q 317 399 253 392 q 431 406 382 406 l 493 406 l 493 422 q 478 503 493 475 q 436 550 464 531 q 385 572 413 565 q 314 578 358 578 q 211 563 256 578 q 125 522 167 547 l 103 606 q 325 660 196 660 q 422 651 376 660 q 503 619 468 642 q 536 589 519 608 q 560 550 553 569 l 565 550 m 268 65 q 389 101 325 65 q 493 206 453 138 l 493 335 l 481 335 q 367 331 424 335 q 263 310 310 326 q 188 262 217 293 q 158 176 158 231 q 188 94 158 122 q 268 65 218 65 m 811 582 q 669 534 719 582 q 600 414 618 486 l 979 414 q 981 426 981 421 q 981 439 981 432 q 967 501 981 474 q 929 546 953 528 q 875 573 906 564 q 811 582 844 582 z "},"à":{"ha":692,"x_min":56,"x_max":590,"o":"m 431 763 l 150 869 q 146 896 146 883 q 158 929 146 915 q 194 944 171 943 l 444 804 l 449 794 l 442 767 l 431 763 m 514 0 l 503 114 l 497 114 q 453 64 481 88 q 391 22 425 40 q 317 -6 357 4 q 239 -17 278 -17 q 101 37 147 -17 q 56 171 56 90 q 96 297 56 250 q 194 368 136 344 q 317 399 253 392 q 431 406 382 406 l 493 406 l 493 422 q 478 503 493 475 q 436 550 464 531 q 385 572 413 565 q 314 578 358 578 q 211 563 256 578 q 125 522 167 547 l 103 606 q 325 660 196 660 q 422 651 376 660 q 503 619 468 642 q 567 549 543 594 q 590 435 590 503 l 590 0 l 514 0 m 268 65 q 389 101 325 65 q 493 206 453 138 l 493 335 l 481 335 q 367 331 424 335 q 263 310 310 326 q 188 262 217 293 q 158 176 158 231 q 188 94 158 122 q 268 65 218 65 z "},"&":{"ha":974,"x_min":88,"x_max":929,"o":"m 929 593 l 929 507 l 743 490 q 786 326 786 411 q 739 157 786 236 l 892 0 l 775 0 l 686 90 q 567 13 638 42 q 408 -17 497 -17 q 269 5 329 -17 q 168 63 208 26 q 108 147 128 100 q 88 244 88 194 q 99 322 88 282 q 134 397 111 361 q 192 464 157 433 q 274 514 228 494 q 211 608 233 561 q 189 717 189 656 q 205 806 189 768 q 249 871 221 844 q 315 910 278 897 q 394 924 353 924 q 491 908 442 924 q 588 863 540 892 l 560 764 q 483 814 528 794 q 397 833 439 833 q 319 805 351 833 q 286 710 286 776 q 304 626 286 664 q 357 553 322 589 l 674 225 q 696 332 696 278 q 684 410 696 374 q 650 482 672 447 l 581 476 l 581 542 l 929 593 m 421 75 q 538 97 488 75 q 624 154 588 118 l 335 450 q 231 376 269 428 q 193 257 193 325 q 210 179 193 213 q 258 122 228 146 q 329 87 288 99 q 421 75 371 75 z "},"å":{"ha":692,"x_min":56,"x_max":590,"o":"m 353 949 q 438 916 407 949 q 468 844 468 883 q 439 778 468 808 q 354 747 410 747 q 303 756 325 747 q 267 780 282 765 q 246 812 253 794 q 239 847 239 829 q 269 917 239 886 q 353 949 300 949 m 354 781 q 399 801 382 781 q 415 844 415 821 q 398 892 415 869 q 351 915 381 915 q 306 894 322 915 q 290 849 290 872 q 308 802 290 824 q 354 781 326 781 m 514 0 l 503 114 l 497 114 q 453 64 481 88 q 391 22 425 40 q 317 -6 357 4 q 239 -17 278 -17 q 101 37 147 -17 q 56 171 56 90 q 96 297 56 250 q 194 368 136 344 q 317 399 253 392 q 431 406 382 406 l 493 406 l 493 422 q 478 503 493 475 q 436 550 464 531 q 385 572 413 565 q 314 578 358 578 q 211 563 256 578 q 125 522 167 547 l 103 606 q 325 660 196 660 q 422 651 376 660 q 503 619 468 642 q 567 549 543 594 q 590 435 590 503 l 590 0 l 514 0 m 268 65 q 389 101 325 65 q 493 206 453 138 l 493 335 l 481 335 q 367 331 424 335 q 263 310 310 326 q 188 262 217 293 q 158 176 158 231 q 188 94 158 122 q 268 65 218 65 z "},"^":{"ha":483,"x_min":79,"x_max":404,"o":"m 247 935 l 400 797 l 404 788 l 396 761 l 386 757 l 242 842 l 97 757 l 88 761 l 79 788 l 83 797 l 236 935 l 247 935 z "},"~":{"ha":689,"x_min":104,"x_max":586,"o":"m 586 400 q 579 378 586 396 q 558 342 572 361 q 520 308 543 324 q 464 293 497 293 q 414 295 449 293 q 338 299 379 297 q 259 303 297 301 q 199 306 221 306 q 150 297 164 306 q 122 271 136 288 l 104 281 q 113 308 104 290 q 138 344 121 326 q 178 375 154 363 q 231 388 201 388 q 278 385 249 388 q 342 381 308 383 q 413 377 376 379 q 479 375 449 375 q 527 381 503 375 q 569 411 551 386 l 586 400 z "},"*":{"ha":610,"x_min":85,"x_max":525,"o":"m 329 789 l 479 901 l 525 821 l 354 746 l 525 672 l 481 593 l 329 703 l 350 519 l 260 519 l 279 703 l 129 593 l 85 672 l 256 746 l 85 821 l 131 901 l 279 789 l 260 975 l 351 975 l 329 789 z "},"@":{"ha":1004,"x_min":79,"x_max":946,"o":"m 613 486 q 578 494 604 494 q 499 469 532 494 q 446 408 467 444 q 415 328 425 371 q 406 250 406 285 q 418 183 406 204 q 450 161 431 161 q 488 176 468 161 q 526 213 508 190 q 559 264 544 236 q 579 318 574 292 l 613 486 m 803 -32 q 759 -63 789 -44 q 688 -99 729 -82 q 594 -128 646 -117 q 486 -140 543 -140 q 329 -112 403 -140 q 200 -34 256 -85 q 112 89 144 17 q 79 250 79 161 q 108 419 79 329 q 196 585 136 508 q 348 711 256 661 q 568 761 440 761 q 737 731 665 761 q 855 651 808 700 q 924 542 901 603 q 946 418 946 481 q 926 300 946 357 q 868 199 906 243 q 778 129 831 156 q 663 103 726 103 q 609 110 629 103 q 578 131 589 118 q 565 163 568 144 q 561 204 561 182 q 502 129 538 157 q 431 101 467 101 q 389 112 410 101 q 351 143 368 122 q 324 195 335 164 q 314 268 314 226 q 338 381 314 331 q 399 466 361 431 q 485 521 438 501 q 579 540 532 540 q 652 529 613 540 q 715 494 692 518 l 664 247 q 660 220 661 232 q 658 199 658 208 q 667 169 658 179 q 699 160 675 160 q 765 181 735 160 q 816 238 794 203 q 849 319 838 274 q 861 413 861 365 q 844 515 861 464 q 792 606 828 565 q 701 671 757 646 q 567 696 646 696 q 393 656 468 696 q 268 553 318 617 q 192 410 218 489 q 167 250 167 331 q 194 103 167 164 q 267 2 221 42 q 373 -56 313 -37 q 500 -74 433 -74 q 606 -62 557 -74 q 693 -33 654 -50 q 760 4 732 -15 q 803 38 788 24 l 803 -32 z "},"ã":{"ha":692,"x_min":56,"x_max":590,"o":"m 564 928 q 557 906 564 924 q 535 870 550 889 q 498 836 521 851 q 442 821 475 821 q 398 823 426 821 q 337 827 369 825 q 272 831 304 829 q 218 833 240 833 q 169 824 183 833 q 142 799 156 815 l 124 810 q 132 838 124 819 q 157 873 140 856 q 197 903 174 890 q 250 915 221 915 q 341 909 286 915 q 457 903 396 903 q 504 908 481 903 q 547 939 528 914 l 564 928 m 514 0 l 503 114 l 497 114 q 453 64 481 88 q 391 22 425 40 q 317 -6 357 4 q 239 -17 278 -17 q 101 37 147 -17 q 56 171 56 90 q 96 297 56 250 q 194 368 136 344 q 317 399 253 392 q 431 406 382 406 l 493 406 l 493 422 q 478 503 493 475 q 436 550 464 531 q 385 572 413 565 q 314 578 358 578 q 211 563 256 578 q 125 522 167 547 l 103 606 q 325 660 196 660 q 422 651 376 660 q 503 619 468 642 q 567 549 543 594 q 590 435 590 503 l 590 0 l 514 0 m 268 65 q 389 101 325 65 q 493 206 453 138 l 493 335 l 481 335 q 367 331 424 335 q 263 310 310 326 q 188 262 217 293 q 158 176 158 231 q 188 94 158 122 q 268 65 218 65 z "},"b":{"ha":799,"x_min":108,"x_max":732,"o":"m 451 -17 q 299 23 363 -17 q 201 114 235 63 l 196 114 l 185 0 l 108 0 l 108 1028 l 206 1028 l 206 519 q 285 619 224 579 q 436 660 346 660 q 565 632 510 660 q 658 558 621 604 q 713 449 694 511 q 732 318 732 386 q 715 191 732 251 q 663 85 697 131 q 575 11 628 39 q 451 -17 522 -17 m 440 65 q 529 88 493 65 q 588 145 565 110 q 619 225 610 181 q 629 314 629 269 q 615 421 629 372 q 574 504 600 469 q 508 558 547 539 q 422 578 469 578 q 290 533 349 578 q 206 410 231 489 l 206 206 q 310 102 246 139 q 440 65 374 65 z "},"\\":{"ha":586,"x_min":49,"x_max":536,"o":"m 49 975 l 150 975 l 536 -79 l 435 -79 l 49 975 z "},"|":{"ha":333,"x_min":124,"x_max":210,"o":"m 210 -158 l 124 -158 l 124 1067 l 210 1067 l 210 -158 z "},"{":{"ha":396,"x_min":50,"x_max":336,"o":"m 336 1026 q 288 1011 306 1024 q 260 980 269 999 q 249 936 251 961 q 246 885 246 911 q 247 846 246 872 q 247 790 247 819 q 248 733 247 761 q 249 686 249 704 q 242 605 249 643 q 222 536 236 567 q 182 484 207 506 q 118 454 157 463 q 182 424 157 446 q 222 372 207 403 q 242 303 236 342 q 249 222 249 265 q 248 176 249 204 q 247 118 247 147 q 247 63 247 89 q 246 24 246 36 q 249 -28 246 -4 q 260 -72 251 -53 q 288 -103 269 -90 q 336 -118 306 -115 l 333 -147 q 237 -133 274 -147 q 181 -92 200 -118 q 154 -31 161 -67 q 147 50 147 6 q 148 92 147 65 q 149 148 149 118 q 149 207 149 178 q 150 256 150 236 q 148 311 150 281 q 137 368 146 342 q 108 413 128 394 q 50 433 88 432 l 50 475 q 108 496 88 476 q 138 543 128 515 q 149 601 147 571 q 150 657 150 632 q 149 706 150 678 q 149 764 149 735 q 148 818 149 793 q 147 858 147 843 q 154 938 147 901 q 181 1001 161 975 q 237 1041 200 1026 q 333 1056 274 1056 l 336 1026 z "},"}":{"ha":396,"x_min":60,"x_max":346,"o":"m 63 1056 q 159 1041 122 1056 q 215 1001 196 1026 q 242 938 235 975 q 249 858 249 901 q 248 818 249 843 q 247 764 247 793 q 247 706 247 735 q 246 657 246 678 q 247 601 246 632 q 258 543 249 571 q 288 496 268 515 q 346 475 308 476 l 346 433 q 288 413 308 432 q 259 368 268 394 q 248 311 250 342 q 246 256 246 281 q 247 207 246 236 q 247 148 247 178 q 248 92 247 118 q 249 50 249 65 q 242 -31 249 6 q 215 -92 235 -67 q 159 -133 196 -118 q 63 -147 122 -147 l 60 -118 q 108 -103 90 -115 q 135 -72 126 -90 q 147 -28 144 -53 q 150 24 150 -4 q 149 63 150 36 q 149 118 149 89 q 148 176 149 147 q 147 222 147 204 q 153 303 147 265 q 174 372 160 342 q 214 424 189 403 q 278 454 239 446 q 214 484 239 463 q 174 536 189 506 q 153 605 160 567 q 147 686 147 643 q 148 733 147 704 q 149 790 149 761 q 149 846 149 819 q 150 885 150 872 q 147 936 150 911 q 135 980 144 961 q 108 1011 126 999 q 60 1026 90 1024 l 63 1056 z "},"[":{"ha":397,"x_min":125,"x_max":347,"o":"m 347 -132 l 125 -132 l 125 1040 l 347 1040 l 347 982 l 215 982 l 215 -74 l 347 -74 l 347 -132 z "},"]":{"ha":397,"x_min":50,"x_max":272,"o":"m 50 1040 l 272 1040 l 272 -132 l 50 -132 l 50 -74 l 182 -74 l 182 982 l 50 982 l 50 1040 z "},"¦":{"ha":339,"x_min":126,"x_max":213,"o":"m 213 381 l 213 -158 l 126 -158 l 126 381 l 213 381 m 126 528 l 126 1067 l 213 1067 l 213 528 l 126 528 z "},"•":{"ha":456,"x_min":133,"x_max":322,"o":"m 133 338 q 160 404 133 375 q 228 433 188 433 q 263 426 246 433 q 294 404 281 418 q 315 373 307 390 q 322 338 322 356 q 293 271 322 297 q 228 244 264 244 q 160 271 188 244 q 133 338 133 297 z "},"c":{"ha":694,"x_min":67,"x_max":638,"o":"m 607 522 q 515 565 575 546 q 396 583 456 583 q 292 563 335 583 q 222 507 250 542 q 182 427 194 472 q 169 333 169 382 q 185 229 169 279 q 230 142 200 179 q 303 82 260 104 q 406 60 347 60 q 520 83 461 60 q 618 143 579 107 l 638 53 q 531 6 599 28 q 388 -17 464 -17 q 247 11 307 -17 q 147 85 186 39 q 87 194 107 132 q 67 325 67 256 q 85 452 67 392 q 144 559 104 513 q 247 633 185 606 q 397 660 310 660 q 528 644 464 660 q 631 604 592 629 l 607 522 z "},"ˇ":{"ha":325,"x_min":0,"x_max":325,"o":"m 157 757 l 4 894 l 0 903 l 8 931 l 18 935 l 163 849 l 307 935 l 317 931 l 325 903 l 321 894 l 168 757 l 157 757 z "},"ç":{"ha":694,"x_min":68,"x_max":639,"o":"m 608 522 q 517 565 576 546 q 397 583 457 583 q 294 563 336 583 q 224 507 251 542 q 183 427 196 472 q 171 333 171 382 q 186 229 171 279 q 231 142 201 179 q 305 82 261 104 q 407 60 349 60 q 520 81 463 60 q 617 139 578 103 l 639 53 q 540 8 603 29 q 404 -17 476 -14 l 371 -71 q 395 -67 383 -68 q 417 -65 407 -65 q 496 -94 465 -65 q 526 -165 526 -122 q 515 -210 526 -189 q 484 -247 504 -231 q 436 -272 464 -262 q 375 -282 408 -282 q 308 -274 342 -282 q 249 -256 275 -267 l 247 -247 l 265 -215 l 275 -215 q 317 -227 292 -222 q 371 -232 343 -232 q 423 -220 401 -232 q 444 -176 444 -208 q 424 -126 444 -139 q 374 -112 403 -112 q 339 -115 357 -112 q 306 -122 321 -118 l 294 -107 l 354 -15 q 228 20 282 -10 q 140 96 175 50 q 86 201 104 142 q 68 325 68 260 q 87 452 68 392 q 146 559 106 513 q 249 633 186 606 q 399 660 311 660 q 529 644 465 660 q 632 604 593 629 l 608 522 z "},"¸":{"ha":281,"x_min":0,"x_max":281,"o":"m 0 -247 l 18 -215 l 28 -215 q 71 -227 44 -222 q 124 -232 97 -232 q 176 -220 154 -232 q 199 -176 199 -208 q 177 -126 199 -139 q 126 -112 156 -112 q 92 -115 110 -112 q 60 -122 75 -118 l 47 -107 l 118 0 l 165 0 l 124 -71 q 171 -65 147 -65 q 250 -94 219 -65 q 281 -165 281 -122 q 269 -210 281 -189 q 237 -247 257 -231 q 189 -272 217 -262 q 128 -282 161 -282 q 62 -274 94 -282 q 1 -256 29 -267 l 0 -247 z "},"¢":{"ha":703,"x_min":65,"x_max":636,"o":"m 440 615 q 547 597 496 611 q 629 563 597 583 l 606 481 q 534 515 579 500 q 440 538 489 531 l 440 61 q 537 90 489 68 q 617 143 585 111 l 636 53 q 553 13 604 32 q 440 -14 501 -7 l 440 -190 l 357 -190 l 357 -15 q 228 17 283 -10 q 138 88 174 44 q 83 188 101 132 q 65 304 65 243 q 82 417 65 363 q 134 513 99 471 q 225 583 169 556 q 357 617 281 610 l 357 801 l 440 801 l 440 615 m 168 313 q 180 225 168 267 q 216 150 192 183 q 276 94 240 117 q 357 64 311 72 l 357 539 q 271 512 307 532 q 212 461 235 492 q 178 392 189 431 q 168 313 168 354 z "},"ˆ":{"ha":325,"x_min":0,"x_max":325,"o":"m 168 935 l 321 797 l 325 788 l 317 761 l 307 757 l 163 842 l 18 757 l 8 761 l 0 788 l 4 797 l 157 935 l 168 935 z "},":":{"ha":336,"x_min":103,"x_max":233,"o":"m 103 49 q 121 95 103 75 q 167 115 139 115 q 213 95 193 115 q 233 49 233 75 q 213 3 233 22 q 167 -15 193 -15 q 121 3 139 -15 q 103 49 103 22 m 103 567 q 121 613 103 593 q 167 632 139 632 q 213 613 193 632 q 233 567 233 593 q 213 520 233 539 q 167 501 193 501 q 121 520 139 501 q 103 567 103 539 z "},",":{"ha":338,"x_min":94,"x_max":224,"o":"m 94 -108 l 149 -7 l 114 -7 l 114 118 l 224 118 l 224 -28 l 122 -135 l 94 -108 z "},"©":{"ha":1007,"x_min":82,"x_max":925,"o":"m 503 908 q 667 876 590 908 q 801 786 744 843 q 892 653 858 729 q 925 492 925 578 q 892 327 925 404 q 801 194 858 250 q 665 105 743 138 q 496 72 586 72 q 335 106 411 72 q 203 196 260 139 q 115 329 147 253 q 82 492 82 406 q 115 653 82 578 q 205 786 147 729 q 339 876 263 843 q 503 908 415 908 m 503 851 q 363 824 428 851 q 249 747 297 796 q 174 632 201 697 q 147 492 147 567 q 174 349 147 415 q 249 234 201 283 q 360 157 297 185 q 497 129 424 129 q 641 157 575 129 q 756 233 707 185 q 832 348 804 282 q 860 492 860 414 q 832 632 860 567 q 756 747 804 697 q 643 824 708 796 q 503 851 578 851 m 650 614 q 585 643 628 631 q 503 656 543 656 q 437 643 464 656 q 393 610 410 631 q 369 560 376 589 q 361 500 361 532 q 398 379 361 429 q 508 329 435 329 q 590 345 549 329 q 658 388 631 361 l 671 310 q 596 276 643 292 q 496 261 549 261 q 398 280 439 261 q 330 330 357 299 q 290 403 303 361 q 276 494 276 446 q 289 583 276 542 q 328 656 301 625 q 399 706 356 688 q 503 724 442 724 q 594 713 549 724 q 667 685 639 703 l 650 614 z "},"¤":{"ha":807,"x_min":76,"x_max":729,"o":"m 189 149 q 128 319 128 224 q 142 404 128 364 q 190 488 156 444 l 76 599 l 118 640 l 229 531 q 314 577 274 563 q 401 592 354 592 q 491 577 450 592 q 572 531 532 563 l 685 639 l 726 599 l 617 488 q 663 404 649 444 q 678 317 678 364 q 664 231 678 271 q 618 149 650 190 l 729 38 l 686 -4 l 574 106 q 492 59 533 75 q 404 43 450 43 q 319 58 360 43 q 232 106 278 74 l 121 -4 l 81 38 l 189 149 m 403 525 q 324 509 361 525 q 258 465 286 493 q 213 399 229 438 q 197 318 197 361 q 213 238 197 275 q 258 172 229 200 q 324 127 286 143 q 404 111 361 111 q 484 127 447 111 q 549 172 521 143 q 592 238 576 200 q 608 318 608 275 q 592 399 608 361 q 549 464 576 436 q 483 508 521 492 q 403 525 446 525 z "},"d":{"ha":799,"x_min":67,"x_max":690,"o":"m 347 -17 q 224 11 276 -17 q 136 85 171 39 q 84 191 101 131 q 67 318 67 251 q 85 449 67 386 q 141 558 104 511 q 233 632 178 604 q 363 660 289 660 q 515 619 456 660 q 593 519 575 579 l 593 1028 l 690 1028 l 690 0 l 614 0 l 603 114 l 597 114 q 500 23 564 63 q 347 -17 436 -17 m 358 65 q 490 101 425 65 q 593 206 554 138 l 593 410 q 509 533 568 489 q 376 578 450 578 q 290 558 328 578 q 225 504 251 539 q 184 421 199 469 q 169 314 169 372 q 179 225 169 269 q 211 145 189 181 q 269 88 233 110 q 358 65 306 65 z "},"†":{"ha":647,"x_min":50,"x_max":597,"o":"m 261 151 l 278 468 l 278 603 l 264 603 l 50 586 l 50 688 l 264 671 l 278 671 l 261 961 l 386 961 l 369 671 l 382 671 l 597 688 l 597 586 l 382 603 l 369 603 l 369 468 l 386 151 l 261 151 z "},"‡":{"ha":706,"x_min":79,"x_max":626,"o":"m 290 -99 l 306 192 l 293 192 l 79 174 l 79 276 l 293 258 l 307 258 l 307 603 l 293 603 l 79 586 l 79 688 l 293 671 l 307 671 l 290 961 l 415 961 l 399 671 l 411 671 l 626 688 l 626 586 l 411 603 l 399 603 l 399 258 l 411 258 l 626 276 l 626 174 l 411 192 l 399 192 l 415 -99 l 290 -99 z "},"°":{"ha":497,"x_min":79,"x_max":418,"o":"m 247 914 q 375 865 332 914 q 418 750 418 817 q 408 692 418 719 q 376 642 397 664 q 323 608 356 621 q 247 596 290 596 q 171 609 203 596 q 119 644 139 622 q 89 695 99 667 q 79 754 79 724 q 90 816 79 788 q 123 867 101 844 q 176 901 144 889 q 247 914 207 914 m 247 649 q 324 677 300 649 q 349 750 349 706 q 324 826 349 794 q 246 857 299 857 q 168 827 192 857 q 144 756 144 797 q 170 680 144 711 q 247 649 196 649 z "},"¨":{"ha":306,"x_min":0,"x_max":306,"o":"m 0 876 q 17 920 0 901 q 57 939 33 939 q 98 920 81 939 q 115 876 115 901 q 98 833 115 850 q 57 815 81 815 q 17 833 33 815 q 0 876 0 850 m 190 876 q 207 920 190 901 q 247 939 224 939 q 288 920 271 939 q 306 876 306 901 q 288 833 306 850 q 247 815 271 815 q 207 833 224 815 q 190 876 190 850 z "},"÷":{"ha":786,"x_min":107,"x_max":682,"o":"m 682 368 l 682 296 l 107 296 l 107 368 l 682 368 m 344 111 q 363 157 344 138 q 410 176 382 176 q 455 157 435 176 q 475 111 475 138 q 455 65 475 83 q 410 46 435 46 q 363 65 382 46 q 344 111 344 83 m 344 551 q 363 598 344 578 q 410 618 382 618 q 455 598 435 618 q 475 551 475 578 q 455 506 475 525 q 410 488 435 488 q 363 506 382 488 q 344 551 344 525 z "},"$":{"ha":735,"x_min":60,"x_max":679,"o":"m 417 922 q 532 904 478 918 q 626 871 586 890 l 597 764 q 513 810 563 794 q 417 829 464 825 l 417 525 q 513 488 465 508 q 597 435 560 467 q 656 357 633 403 q 679 244 679 311 q 658 134 679 181 q 601 56 638 88 q 517 8 565 25 q 417 -14 469 -8 l 417 -133 l 333 -133 l 333 -15 q 181 9 251 -12 q 60 60 111 31 l 89 161 q 193 102 139 126 q 333 75 247 78 l 333 435 q 228 476 275 454 q 149 528 182 499 q 99 598 117 558 q 82 692 82 638 q 101 789 82 747 q 153 858 119 831 q 233 901 188 886 q 333 921 279 917 l 333 1042 l 417 1042 l 417 922 m 572 225 q 559 289 572 261 q 524 338 546 317 q 475 376 503 360 q 417 404 447 392 l 417 79 q 536 130 500 90 q 572 225 572 169 m 183 696 q 192 647 183 668 q 219 610 201 626 q 266 581 238 594 q 333 554 294 568 l 333 829 q 223 790 263 822 q 183 696 183 758 z "},"ı":{"ha":314,"x_min":108,"x_max":206,"o":"m 206 0 l 108 0 l 108 639 l 206 639 l 206 0 z "},"e":{"ha":718,"x_min":65,"x_max":650,"o":"m 394 660 q 583 598 517 660 q 650 424 650 536 q 647 376 650 400 q 638 340 644 351 l 169 340 l 169 326 q 183 225 169 274 q 225 139 197 176 q 295 79 253 101 q 396 57 338 57 q 461 65 429 57 q 522 84 493 72 q 576 110 551 96 q 621 138 601 124 l 638 58 q 593 34 619 47 q 535 10 567 21 q 465 -9 503 -1 q 385 -17 426 -17 q 247 10 307 -17 q 147 84 188 38 q 86 192 107 131 q 65 319 65 253 q 87 449 65 388 q 150 558 108 511 q 253 633 192 606 q 394 660 315 660 m 390 582 q 248 534 299 582 q 179 414 197 486 l 558 414 q 560 426 560 421 q 560 439 560 432 q 546 501 560 474 q 508 546 532 528 q 454 573 485 564 q 390 582 424 582 z "},"é":{"ha":717,"x_min":65,"x_max":650,"o":"m 394 660 q 583 598 517 660 q 650 424 650 536 q 647 376 650 400 q 638 340 644 351 l 169 340 l 169 326 q 183 225 169 274 q 225 139 197 176 q 295 79 253 101 q 396 57 338 57 q 522 81 463 57 q 619 132 581 104 l 638 58 q 593 34 619 47 q 535 10 567 21 q 465 -9 503 -1 q 385 -17 426 -17 q 247 10 307 -17 q 147 84 188 38 q 86 192 107 131 q 65 319 65 253 q 87 449 65 388 q 150 558 108 511 q 253 633 192 606 q 394 660 315 660 m 390 582 q 248 534 299 582 q 179 414 197 486 l 558 414 q 560 426 560 421 q 560 439 560 432 q 546 501 560 474 q 508 546 532 528 q 454 573 485 564 q 390 582 424 582 m 276 767 l 268 794 l 272 804 l 522 944 q 558 929 546 943 q 571 896 571 915 q 570 883 571 890 q 567 869 569 876 l 286 763 l 276 767 z "},"ê":{"ha":717,"x_min":65,"x_max":650,"o":"m 394 660 q 583 598 517 660 q 650 424 650 536 q 647 376 650 400 q 638 340 644 351 l 169 340 l 169 326 q 183 225 169 274 q 225 139 197 176 q 295 79 253 101 q 396 57 338 57 q 522 81 463 57 q 619 132 581 104 l 638 58 q 593 34 619 47 q 535 10 567 21 q 465 -9 503 -1 q 385 -17 426 -17 q 247 10 307 -17 q 147 84 188 38 q 86 192 107 131 q 65 319 65 253 q 87 449 65 388 q 150 558 108 511 q 253 633 192 606 q 394 660 315 660 m 390 582 q 248 534 299 582 q 179 414 197 486 l 558 414 q 560 426 560 421 q 560 439 560 432 q 546 501 560 474 q 508 546 532 528 q 454 573 485 564 q 390 582 424 582 m 382 935 l 536 797 l 539 788 l 532 761 l 521 757 l 378 842 l 233 757 l 222 761 l 215 788 l 218 797 l 372 935 l 382 935 z "},"ë":{"ha":717,"x_min":65,"x_max":650,"o":"m 394 660 q 583 598 517 660 q 650 424 650 536 q 647 376 650 400 q 638 340 644 351 l 169 340 l 169 326 q 183 225 169 274 q 225 139 197 176 q 295 79 253 101 q 396 57 338 57 q 522 81 463 57 q 619 132 581 104 l 638 58 q 593 34 619 47 q 535 10 567 21 q 465 -9 503 -1 q 385 -17 426 -17 q 247 10 307 -17 q 147 84 188 38 q 86 192 107 131 q 65 319 65 253 q 87 449 65 388 q 150 558 108 511 q 253 633 192 606 q 394 660 315 660 m 390 582 q 248 534 299 582 q 179 414 197 486 l 558 414 q 560 426 560 421 q 560 439 560 432 q 546 501 560 474 q 508 546 532 528 q 454 573 485 564 q 390 582 424 582 m 425 869 q 442 913 425 894 q 482 932 458 932 q 523 913 506 932 q 540 869 540 894 q 523 826 540 843 q 482 808 506 808 q 442 826 458 808 q 425 869 425 843 m 207 869 q 224 913 207 894 q 264 932 240 932 q 305 913 288 932 q 322 869 322 894 q 305 826 322 843 q 264 808 288 808 q 224 826 240 808 q 207 869 207 843 z "},"è":{"ha":717,"x_min":65,"x_max":650,"o":"m 394 660 q 583 598 517 660 q 650 424 650 536 q 647 376 650 400 q 638 340 644 351 l 169 340 l 169 326 q 183 225 169 274 q 225 139 197 176 q 295 79 253 101 q 396 57 338 57 q 522 81 463 57 q 619 132 581 104 l 638 58 q 593 34 619 47 q 535 10 567 21 q 465 -9 503 -1 q 385 -17 426 -17 q 247 10 307 -17 q 147 84 188 38 q 86 192 107 131 q 65 319 65 253 q 87 449 65 388 q 150 558 108 511 q 253 633 192 606 q 394 660 315 660 m 390 582 q 248 534 299 582 q 179 414 197 486 l 558 414 q 560 426 560 421 q 560 439 560 432 q 546 501 560 474 q 508 546 532 528 q 454 573 485 564 q 390 582 424 582 m 476 763 l 196 869 q 192 896 192 883 q 204 929 192 915 q 240 944 217 943 l 490 804 l 494 794 l 488 767 l 476 763 z "},"…":{"ha":851,"x_min":99,"x_max":754,"o":"m 99 49 q 117 95 99 75 q 163 115 135 115 q 209 95 189 115 q 229 49 229 75 q 209 3 229 22 q 163 -15 189 -15 q 117 3 135 -15 q 99 49 99 22 m 361 49 q 380 95 361 75 q 425 115 399 115 q 472 95 451 115 q 492 49 492 75 q 472 3 492 22 q 425 -15 451 -15 q 380 3 399 -15 q 361 49 361 22 m 624 49 q 642 95 624 75 q 688 115 661 115 q 734 95 714 115 q 754 49 754 75 q 734 3 754 22 q 688 -15 714 -15 q 642 3 661 -15 q 624 49 624 22 z "},"—":{"ha":1097,"x_min":103,"x_max":994,"o":"m 994 368 l 994 296 l 103 296 l 103 368 l 994 368 z "},"–":{"ha":781,"x_min":103,"x_max":678,"o":"m 678 368 l 678 296 l 103 296 l 103 368 l 678 368 z "},"=":{"ha":681,"x_min":106,"x_max":575,"o":"m 575 263 l 575 190 l 106 190 l 106 263 l 575 263 m 575 474 l 575 401 l 106 401 l 106 474 l 575 474 z "},"ð":{"ha":783,"x_min":67,"x_max":768,"o":"m 478 1028 q 581 897 533 978 l 743 940 l 768 874 l 613 833 q 681 630 656 742 q 706 401 706 518 q 691 245 706 321 q 640 111 676 169 q 542 18 603 53 q 388 -17 481 -17 q 240 13 301 -17 q 141 90 179 42 q 85 200 103 139 q 67 326 67 261 q 85 453 67 393 q 144 560 104 514 q 244 633 183 606 q 390 660 306 660 q 526 634 467 660 q 614 550 586 608 l 618 551 q 579 698 599 635 q 535 814 560 761 l 361 769 l 338 833 l 501 876 q 446 953 476 917 q 376 1028 415 989 l 478 1028 m 388 57 q 485 80 444 57 q 553 141 526 103 q 594 228 581 179 q 607 332 607 278 q 545 520 607 457 q 385 583 483 583 q 285 562 326 583 q 219 505 244 540 q 183 424 194 469 q 171 329 171 378 q 183 228 171 276 q 222 141 196 179 q 290 80 249 103 q 388 57 331 57 z "},"!":{"ha":358,"x_min":113,"x_max":247,"o":"m 115 49 q 134 95 115 75 q 181 115 153 115 q 226 95 206 115 q 246 49 246 75 q 226 3 246 22 q 181 -15 206 -15 q 134 3 153 -15 q 115 49 115 22 m 146 208 l 113 947 l 247 947 l 211 208 l 146 208 z "},"¡":{"ha":333,"x_min":100,"x_max":235,"o":"m 103 596 q 122 641 103 622 q 168 660 140 660 q 213 641 193 660 q 233 596 233 622 q 213 549 233 569 q 168 529 193 529 q 122 549 140 529 q 103 596 103 569 m 199 436 l 235 -303 l 100 -303 l 133 436 l 199 436 z "},"f":{"ha":414,"x_min":35,"x_max":465,"o":"m 142 574 l 35 574 l 35 625 l 142 638 q 147 771 142 715 q 160 865 151 826 q 178 927 168 903 q 199 967 189 951 q 264 1020 225 1006 q 344 1035 303 1035 q 364 1034 350 1035 q 395 1031 378 1033 q 431 1024 413 1029 q 465 1011 449 1019 l 442 929 q 422 934 438 929 q 388 945 407 939 q 348 957 369 951 q 310 963 326 963 q 275 951 289 963 q 253 912 261 939 q 242 840 246 885 q 239 731 239 796 l 239 639 l 389 639 l 389 574 l 239 574 l 239 0 l 142 0 l 142 574 z "},"ƒ":{"ha":846,"x_min":40,"x_max":813,"o":"m 488 574 l 369 -4 q 326 -140 354 -75 q 260 -253 299 -204 q 175 -330 222 -301 q 75 -358 128 -358 q 57 -358 65 -358 q 46 -354 49 -357 l 40 -274 q 69 -278 49 -278 q 151 -252 117 -278 q 208 -187 185 -226 q 246 -98 231 -147 q 271 0 261 -49 l 389 574 l 296 574 l 296 625 l 403 639 l 429 764 q 475 901 447 849 q 536 984 503 954 q 608 1024 569 1014 q 683 1035 646 1035 q 706 1034 690 1035 q 740 1031 721 1033 q 778 1024 758 1029 q 813 1011 797 1019 l 771 924 q 726 951 756 939 q 656 963 696 963 q 611 955 629 963 q 578 922 593 947 q 549 851 563 897 q 521 731 536 806 l 501 639 l 650 639 l 650 574 l 488 574 z "},"⁴":{"ha":460,"x_min":58,"x_max":379,"o":"m 379 569 l 329 569 l 329 415 l 267 415 l 267 569 l 58 569 l 58 628 l 263 924 l 329 924 l 329 628 l 379 628 l 379 569 m 267 628 l 267 842 l 129 628 l 267 628 z "},"g":{"ha":706,"x_min":44,"x_max":676,"o":"m 196 197 q 100 281 129 224 q 71 406 71 339 q 89 506 71 460 q 141 586 107 551 q 223 640 175 621 q 332 660 271 660 q 403 653 368 660 q 465 632 439 646 q 574 639 524 633 q 669 657 625 644 l 676 651 l 667 575 l 660 568 l 533 574 l 532 569 q 585 493 568 540 q 601 401 601 446 q 584 314 601 356 q 533 241 567 272 q 451 191 500 210 q 338 172 401 172 q 311 173 322 172 q 290 174 300 174 q 247 147 261 164 q 232 119 232 131 q 251 95 232 106 q 311 81 269 85 l 446 67 q 531 48 492 63 q 600 10 571 33 q 647 -45 629 -12 q 664 -119 664 -78 q 646 -202 664 -160 q 592 -275 628 -244 q 492 -325 556 -306 q 344 -344 428 -344 q 217 -330 274 -344 q 123 -290 161 -315 q 65 -231 85 -264 q 44 -160 44 -197 q 56 -105 44 -132 q 85 -54 67 -78 q 127 -12 103 -31 q 178 15 151 6 l 178 21 q 121 93 121 47 q 142 146 121 122 q 196 192 164 169 l 196 197 m 338 242 q 406 255 376 242 q 457 290 436 268 q 489 340 478 311 q 500 401 500 369 q 489 467 500 433 q 456 527 478 500 q 403 571 435 554 q 329 588 371 588 q 259 572 289 588 q 209 531 229 556 q 179 475 189 506 q 169 414 169 444 q 180 351 169 382 q 212 297 190 321 q 265 257 233 272 q 338 242 296 242 m 293 -7 q 234 -19 261 -7 q 187 -51 207 -32 q 155 -95 167 -71 q 143 -143 143 -119 q 199 -227 143 -196 q 351 -258 256 -258 q 437 -251 397 -258 q 505 -227 476 -243 q 550 -188 533 -211 q 567 -133 567 -165 q 499 -44 567 -71 q 293 -7 432 -17 z "},"ß":{"ha":756,"x_min":108,"x_max":710,"o":"m 206 0 l 108 0 l 108 675 q 124 817 108 753 q 173 926 140 881 q 253 997 206 972 q 365 1022 301 1022 q 458 1006 417 1022 q 529 965 500 990 q 574 905 558 939 q 590 835 590 871 q 568 748 590 788 q 519 673 546 708 q 471 605 493 638 q 449 542 449 572 q 468 491 449 513 q 517 449 488 469 q 579 406 546 428 q 642 353 613 383 q 690 285 671 324 q 710 192 710 246 q 688 95 710 135 q 635 31 667 56 q 567 -6 604 6 q 500 -17 531 -17 q 415 2 454 -17 q 351 44 376 21 l 379 143 q 436 78 400 101 q 510 56 472 56 q 578 85 550 56 q 607 176 607 115 q 588 258 607 225 q 542 316 569 292 q 482 360 514 340 q 422 403 450 381 q 376 456 394 426 q 357 532 357 486 q 377 618 357 581 q 422 689 397 656 q 466 756 446 722 q 486 828 486 789 q 455 905 486 872 q 360 938 424 938 q 279 915 310 938 q 232 857 249 893 q 210 773 215 821 q 206 675 206 725 l 206 0 z "},"`":{"ha":304,"x_min":0,"x_max":304,"o":"m 285 763 l 6 869 q 0 896 0 882 q 13 929 0 915 q 49 944 25 943 l 300 804 l 304 794 l 296 767 l 285 763 z "},">":{"ha":567,"x_min":92,"x_max":514,"o":"m 367 338 l 93 519 l 118 607 l 514 338 l 514 331 l 117 57 l 92 146 l 367 331 l 367 338 z "},"«":{"ha":672,"x_min":72,"x_max":593,"o":"m 168 331 l 368 85 l 257 85 l 72 331 l 72 338 l 258 583 l 368 583 l 168 338 l 168 331 m 393 331 l 593 85 l 482 85 l 297 331 l 297 338 l 483 583 l 593 583 l 393 338 l 393 331 z "},"»":{"ha":672,"x_min":79,"x_max":600,"o":"m 504 338 l 304 583 l 414 583 l 600 338 l 600 331 l 415 85 l 304 85 l 504 331 l 504 338 m 279 338 l 79 583 l 189 583 l 375 338 l 375 331 l 190 85 l 79 85 l 279 331 l 279 338 z "},"‹":{"ha":447,"x_min":72,"x_max":368,"o":"m 168 331 l 368 85 l 257 85 l 72 331 l 72 338 l 258 583 l 368 583 l 168 338 l 168 331 z "},"›":{"ha":447,"x_min":79,"x_max":375,"o":"m 279 338 l 79 583 l 189 583 l 375 338 l 375 331 l 190 85 l 79 85 l 279 331 l 279 338 z "},"h":{"ha":757,"x_min":108,"x_max":654,"o":"m 557 0 l 557 422 q 519 542 557 507 q 424 578 482 578 q 355 567 389 578 q 292 534 321 556 q 240 481 263 513 q 206 410 218 450 l 206 0 l 108 0 l 108 1028 l 206 1028 l 206 519 q 284 619 224 578 q 438 660 344 660 q 522 648 482 660 q 590 610 561 636 q 637 540 619 583 q 654 435 654 497 l 654 0 l 557 0 z "},"-":{"ha":675,"x_min":103,"x_max":572,"o":"m 572 368 l 572 296 l 103 296 l 103 368 l 572 368 z "},"i":{"ha":314,"x_min":88,"x_max":229,"o":"m 206 0 l 108 0 l 108 639 l 206 639 l 206 0 m 88 872 q 108 922 88 900 q 157 944 128 944 q 207 922 185 944 q 229 872 229 900 q 207 823 229 843 q 157 803 185 803 q 108 823 128 803 q 88 872 88 843 z "},"í":{"ha":314,"x_min":21,"x_max":325,"o":"m 29 767 l 21 794 l 25 804 l 275 944 q 312 929 299 943 q 325 896 325 915 q 319 869 325 882 l 39 763 l 29 767 m 206 0 l 108 0 l 108 639 l 206 639 l 206 0 z "},"î":{"ha":314,"x_min":-10,"x_max":315,"o":"m 158 935 l 311 797 l 315 788 l 307 761 l 297 757 l 153 842 l 10 757 l -1 761 l -10 788 l -6 797 l 147 935 l 158 935 m 206 0 l 108 0 l 108 639 l 206 639 l 206 0 z "},"ï":{"ha":314,"x_min":-11,"x_max":322,"o":"m -11 869 q 6 913 -11 894 q 46 932 22 932 q 87 913 69 932 q 104 869 104 894 q 87 826 104 843 q 46 808 69 808 q 6 826 22 808 q -11 869 -11 843 m 207 869 q 224 913 207 894 q 264 932 240 932 q 305 913 288 932 q 322 869 322 894 q 305 826 322 843 q 264 808 288 808 q 224 826 240 808 q 207 869 207 843 m 206 0 l 108 0 l 108 639 l 206 639 l 206 0 z "},"ì":{"ha":314,"x_min":-47,"x_max":257,"o":"m 238 763 l -42 869 q -47 896 -47 882 q -35 929 -47 915 q 1 944 -22 943 l 253 804 l 257 794 l 249 767 l 238 763 m 206 0 l 108 0 l 108 639 l 206 639 l 206 0 z "},"j":{"ha":314,"x_min":-60,"x_max":229,"o":"m 206 -4 q 192 -140 206 -75 q 153 -253 179 -204 q 86 -330 126 -301 q -7 -358 46 -358 q -37 -354 -29 -358 l -60 -274 q -29 -278 -51 -278 q 46 -251 18 -278 q 88 -183 74 -224 q 105 -94 101 -143 q 108 -3 108 -46 l 108 639 l 206 639 l 206 -4 m 88 872 q 108 922 88 900 q 157 944 128 944 q 207 922 185 944 q 229 872 229 900 q 207 823 229 843 q 157 803 185 803 q 108 823 128 803 q 88 872 88 843 z "},"k":{"ha":658,"x_min":108,"x_max":642,"o":"m 369 414 l 642 0 l 531 0 l 301 347 l 206 251 l 206 0 l 108 0 l 108 1028 l 206 1028 l 206 369 l 486 639 l 597 639 l 369 414 z "},"l":{"ha":331,"x_min":117,"x_max":214,"o":"m 214 0 l 117 0 l 117 1028 l 214 1028 l 214 0 z "},"<":{"ha":567,"x_min":53,"x_max":475,"o":"m 200 331 l 475 146 l 450 57 l 53 331 l 53 338 l 449 607 l 474 519 l 200 338 l 200 331 z "},"¬":{"ha":878,"x_min":106,"x_max":772,"o":"m 772 474 l 772 163 l 699 163 l 699 401 l 106 401 l 106 474 l 772 474 z "},"m":{"ha":1193,"x_min":108,"x_max":1092,"o":"m 551 0 l 551 422 q 513 542 551 507 q 415 578 474 578 q 288 534 344 578 q 206 410 231 490 l 206 0 l 108 0 l 108 639 l 185 639 l 196 519 l 201 519 q 277 619 219 578 q 426 660 335 660 q 566 623 510 660 q 638 519 622 586 q 672 572 651 547 q 722 617 693 597 q 789 648 751 636 q 874 660 826 660 q 956 648 917 660 q 1026 610 996 636 q 1074 540 1056 583 q 1092 435 1092 497 l 1092 0 l 994 0 l 994 422 q 956 542 994 507 q 858 578 917 578 q 731 534 788 578 q 649 410 674 490 l 649 0 l 551 0 z "},"µ":{"ha":801,"x_min":56,"x_max":707,"o":"m 258 639 l 258 217 q 269 144 258 174 q 297 98 279 115 q 338 73 314 81 q 392 65 363 65 q 460 76 426 65 q 524 107 494 86 q 575 158 553 128 q 610 229 597 189 l 610 639 l 707 639 l 707 0 l 631 0 l 619 119 l 614 119 q 533 22 596 61 q 378 -17 471 -17 q 293 -6 333 -17 q 224 32 253 6 l 219 14 q 144 -194 196 -89 l 56 -154 q 100 -65 81 -107 q 133 21 119 -22 q 153 108 146 64 q 161 204 161 153 l 161 639 l 258 639 z "},"×":{"ha":636,"x_min":99,"x_max":538,"o":"m 317 281 l 150 113 l 99 164 l 265 332 l 99 499 l 150 550 l 317 383 l 486 551 l 538 500 l 368 332 l 538 163 l 486 111 l 317 281 z "},"n":{"ha":757,"x_min":108,"x_max":654,"o":"m 557 0 l 557 422 q 519 542 557 506 q 424 578 482 578 q 355 567 389 578 q 292 534 321 556 q 240 481 263 513 q 206 410 218 450 l 206 0 l 108 0 l 108 639 l 185 639 l 196 519 l 201 519 q 282 619 219 578 q 438 660 344 660 q 522 648 482 660 q 590 610 561 636 q 637 540 619 583 q 654 435 654 497 l 654 0 l 557 0 z "},"ñ":{"ha":757,"x_min":108,"x_max":654,"o":"m 599 921 q 585 883 594 901 q 562 849 576 864 q 526 824 547 833 q 476 814 506 814 q 363 824 421 814 q 261 833 306 833 q 213 824 226 833 q 185 799 199 815 l 167 810 q 182 847 172 828 q 206 881 192 867 q 242 906 221 896 q 293 915 264 915 q 353 913 328 915 q 401 906 379 910 q 444 899 424 901 q 492 896 465 896 q 539 901 515 896 q 582 932 563 907 l 599 921 m 557 0 l 557 422 q 519 542 557 507 q 424 578 482 578 q 355 567 389 578 q 292 534 321 556 q 240 481 263 513 q 206 410 218 450 l 206 0 l 108 0 l 108 639 l 185 639 l 196 519 l 201 519 q 282 619 219 578 q 438 660 344 660 q 522 648 482 660 q 590 610 561 636 q 637 540 619 583 q 654 435 654 497 l 654 0 l 557 0 z "},"#":{"ha":853,"x_min":53,"x_max":801,"o":"m 633 619 l 801 619 l 788 547 l 618 547 l 582 382 l 760 382 l 746 308 l 567 308 l 501 0 l 413 0 l 478 308 l 303 308 l 238 0 l 149 0 l 214 308 l 53 308 l 67 382 l 229 382 l 265 547 l 94 547 l 108 619 l 281 619 l 342 908 l 431 908 l 369 619 l 544 619 l 606 908 l 694 908 l 633 619 m 318 382 l 493 382 l 529 547 l 354 547 l 318 382 z "},"o":{"ha":779,"x_min":67,"x_max":713,"o":"m 389 660 q 535 631 474 660 q 635 555 596 603 q 694 445 675 507 q 713 315 713 383 q 694 187 713 247 q 636 81 675 126 q 537 10 597 36 q 394 -17 476 -17 q 248 11 310 -17 q 146 85 186 39 q 86 193 106 132 q 67 322 67 254 q 86 451 67 390 q 145 559 106 513 q 246 633 185 606 q 389 660 307 660 m 393 57 q 490 78 449 57 q 558 134 531 99 q 597 216 585 169 q 610 314 610 263 q 597 415 610 367 q 556 501 583 464 q 485 560 528 538 q 385 582 443 582 q 288 561 328 582 q 221 506 247 540 q 182 424 194 471 q 169 326 169 378 q 183 225 169 274 q 223 139 196 176 q 292 79 250 101 q 393 57 335 57 z "},"ó":{"ha":779,"x_min":67,"x_max":713,"o":"m 286 767 l 278 794 l 282 804 l 532 944 q 569 929 556 943 q 582 896 582 915 q 576 869 582 882 l 296 763 l 286 767 m 389 660 q 535 631 474 660 q 635 555 596 603 q 694 445 675 507 q 713 315 713 383 q 694 187 713 247 q 636 81 675 126 q 537 10 597 36 q 394 -17 476 -17 q 248 11 310 -17 q 146 85 186 39 q 86 193 106 132 q 67 322 67 254 q 86 451 67 390 q 145 559 106 513 q 246 633 185 606 q 389 660 307 660 m 393 57 q 490 78 449 57 q 558 134 531 99 q 597 216 585 169 q 610 314 610 263 q 597 415 610 367 q 556 501 583 464 q 485 560 528 538 q 385 582 443 582 q 288 561 328 582 q 221 506 247 540 q 182 424 194 471 q 169 326 169 378 q 183 225 169 274 q 223 139 196 176 q 292 79 250 101 q 393 57 335 57 z "},"ô":{"ha":779,"x_min":67,"x_max":713,"o":"m 406 935 l 558 797 l 563 788 l 556 761 l 544 757 l 400 842 l 257 757 l 246 761 l 238 788 l 242 797 l 396 935 l 406 935 m 389 660 q 535 631 474 660 q 635 555 596 603 q 694 445 675 507 q 713 315 713 383 q 694 187 713 247 q 636 81 675 126 q 537 10 597 36 q 394 -17 476 -17 q 248 11 310 -17 q 146 85 186 39 q 86 193 106 132 q 67 322 67 254 q 86 451 67 390 q 145 559 106 513 q 246 633 185 606 q 389 660 307 660 m 393 57 q 490 78 449 57 q 558 134 531 99 q 597 216 585 169 q 610 314 610 263 q 597 415 610 367 q 556 501 583 464 q 485 560 528 538 q 385 582 443 582 q 288 561 328 582 q 221 506 247 540 q 182 424 194 471 q 169 326 169 378 q 183 225 169 274 q 223 139 196 176 q 292 79 250 101 q 393 57 335 57 z "},"ö":{"ha":779,"x_min":67,"x_max":713,"o":"m 224 869 q 240 913 224 894 q 281 932 257 932 q 322 913 304 932 q 339 869 339 894 q 322 826 339 843 q 281 808 304 808 q 240 826 257 808 q 224 869 224 843 m 442 869 q 458 913 442 894 q 499 932 475 932 q 540 913 522 932 q 557 869 557 894 q 540 826 557 843 q 499 808 522 808 q 458 826 475 808 q 442 869 442 843 m 389 660 q 535 631 474 660 q 635 555 596 603 q 694 445 675 507 q 713 315 713 383 q 694 187 713 247 q 636 81 675 126 q 537 10 597 36 q 394 -17 476 -17 q 248 11 310 -17 q 146 85 186 39 q 86 193 106 132 q 67 322 67 254 q 86 451 67 390 q 145 559 106 513 q 246 633 185 606 q 389 660 307 660 m 393 57 q 490 78 449 57 q 558 134 531 99 q 597 216 585 169 q 610 314 610 263 q 597 415 610 367 q 556 501 583 464 q 485 560 528 538 q 385 582 443 582 q 288 561 328 582 q 221 506 247 540 q 182 424 194 471 q 169 326 169 378 q 183 225 169 274 q 223 139 196 176 q 292 79 250 101 q 393 57 335 57 z "},"œ":{"ha":1267,"x_min":67,"x_max":1200,"o":"m 944 658 q 1133 597 1067 658 q 1200 422 1200 535 q 1197 374 1200 399 q 1188 339 1194 350 l 719 339 l 719 325 q 733 224 719 272 q 775 138 747 175 q 845 78 803 100 q 946 56 888 56 q 1072 79 1013 56 q 1169 131 1131 103 l 1188 57 q 1143 33 1169 46 q 1085 8 1117 19 q 1015 -10 1053 -3 q 935 -18 976 -18 q 772 21 840 -18 q 664 124 703 60 q 562 21 628 60 q 394 -18 496 -18 q 248 10 310 -18 q 146 84 186 38 q 86 192 106 131 q 67 321 67 253 q 86 450 67 389 q 145 558 106 511 q 246 631 185 604 q 389 658 307 658 q 558 617 492 658 q 663 510 625 576 q 774 617 703 576 q 944 658 844 658 m 393 56 q 490 76 449 56 q 558 133 531 97 q 597 215 585 168 q 610 313 610 261 q 597 414 610 365 q 556 499 583 463 q 485 558 528 536 q 385 581 443 581 q 288 560 328 581 q 221 504 247 539 q 182 423 194 469 q 169 325 169 376 q 183 224 169 272 q 223 138 196 175 q 292 78 250 100 q 393 56 335 56 m 940 581 q 798 533 849 581 q 729 413 747 485 l 1108 413 q 1110 425 1110 419 q 1110 438 1110 431 q 1096 499 1110 472 q 1058 544 1082 526 q 1004 572 1035 563 q 940 581 974 581 z "},"ò":{"ha":779,"x_min":67,"x_max":713,"o":"m 475 763 l 194 869 q 189 896 189 882 q 201 929 189 915 q 238 944 214 943 l 489 804 l 493 794 l 485 767 l 475 763 m 389 660 q 535 631 474 660 q 635 555 596 603 q 694 445 675 507 q 713 315 713 383 q 694 187 713 247 q 636 81 675 126 q 537 10 597 36 q 394 -17 476 -17 q 248 11 310 -17 q 146 85 186 39 q 86 193 106 132 q 67 322 67 254 q 86 451 67 390 q 145 559 106 513 q 246 633 185 606 q 389 660 307 660 m 393 57 q 490 78 449 57 q 558 134 531 99 q 597 216 585 169 q 610 314 610 263 q 597 415 610 367 q 556 501 583 464 q 485 560 528 538 q 385 582 443 582 q 288 561 328 582 q 221 506 247 540 q 182 424 194 471 q 169 326 169 378 q 183 225 169 274 q 223 139 196 176 q 292 79 250 101 q 393 57 335 57 z "},"⁄":{"ha":707,"x_min":-12,"x_max":721,"o":"m 78 -33 l -12 -33 l 631 960 l 721 960 l 78 -33 z "},"¹":{"ha":344,"x_min":60,"x_max":232,"o":"m 232 415 l 157 415 l 157 813 l 78 774 l 60 832 l 232 924 l 232 415 z "},"ª":{"ha":518,"x_min":83,"x_max":414,"o":"m 358 513 l 351 581 l 346 581 q 284 525 326 549 q 193 501 242 501 q 111 533 139 501 q 83 614 83 565 q 108 690 83 661 q 167 734 132 719 q 240 753 201 749 q 308 758 279 758 l 346 758 l 346 768 q 317 838 346 815 q 239 861 288 861 q 176 852 203 861 q 125 828 150 843 l 111 878 q 172 904 139 894 q 244 914 206 914 q 307 906 276 914 q 361 882 338 899 q 399 839 385 865 q 414 775 414 813 l 414 513 l 358 513 m 211 558 q 283 581 244 558 q 346 644 322 604 l 346 711 l 339 711 q 272 708 306 711 q 210 697 238 706 q 167 669 183 688 q 150 618 150 650 q 165 572 150 586 q 211 558 181 558 z "},"º":{"ha":542,"x_min":78,"x_max":464,"o":"m 269 914 q 353 897 317 914 q 414 852 389 881 q 451 786 439 824 q 464 708 464 749 q 452 635 464 671 q 416 573 440 600 q 356 529 392 546 q 271 513 319 513 q 185 529 221 513 q 125 574 149 546 q 90 639 101 603 q 78 713 78 675 q 91 790 78 754 q 129 854 104 826 q 190 898 154 882 q 269 914 225 914 m 271 569 q 364 608 336 569 q 392 708 392 647 q 362 810 392 768 q 267 853 332 853 q 175 813 201 853 q 149 714 149 774 q 178 611 149 653 q 271 569 208 569 z "},"ø":{"ha":779,"x_min":57,"x_max":721,"o":"m 135 99 q 83 202 100 144 q 67 322 67 260 q 86 451 67 390 q 145 559 106 513 q 246 633 185 606 q 389 660 307 660 q 495 645 447 660 q 579 606 543 631 l 650 686 l 721 632 l 643 544 q 696 438 679 497 q 713 315 713 379 q 694 187 713 247 q 636 81 675 126 q 537 10 597 36 q 394 -17 476 -17 q 199 38 276 -17 l 124 -49 l 57 11 l 135 99 m 393 57 q 490 78 449 57 q 558 134 531 99 q 597 216 585 169 q 610 314 610 263 q 576 467 610 400 l 257 103 q 393 57 311 57 m 169 326 q 177 247 169 286 q 201 175 185 208 l 519 538 q 460 570 493 558 q 385 582 426 582 q 288 561 328 582 q 221 506 247 540 q 182 424 194 471 q 169 326 169 378 z "},"õ":{"ha":779,"x_min":67,"x_max":713,"o":"m 593 921 q 580 883 589 901 q 556 849 571 864 q 521 824 542 833 q 471 814 500 814 q 358 824 415 814 q 256 833 300 833 q 207 824 221 833 q 179 799 193 815 l 161 810 q 176 847 167 828 q 201 881 186 867 q 237 906 215 896 q 288 915 258 915 q 348 913 322 915 q 396 906 374 910 q 439 899 418 901 q 486 896 460 896 q 533 901 510 896 q 576 932 557 907 l 593 921 m 389 660 q 535 631 474 660 q 635 555 596 603 q 694 445 675 507 q 713 315 713 383 q 694 187 713 247 q 636 81 675 126 q 537 10 597 36 q 394 -17 476 -17 q 248 11 310 -17 q 146 85 186 39 q 86 193 106 132 q 67 322 67 254 q 86 451 67 390 q 145 559 106 513 q 246 633 185 606 q 389 660 307 660 m 393 57 q 490 78 449 57 q 558 134 531 99 q 597 216 585 169 q 610 314 610 263 q 597 415 610 367 q 556 501 583 464 q 485 560 528 538 q 385 582 443 582 q 288 561 328 582 q 221 506 247 540 q 182 424 194 471 q 169 326 169 378 q 183 225 169 274 q 223 139 196 176 q 292 79 250 101 q 393 57 335 57 z "},"p":{"ha":799,"x_min":108,"x_max":732,"o":"m 451 660 q 575 632 522 660 q 663 558 628 604 q 715 452 697 513 q 732 325 732 392 q 713 194 732 256 q 658 85 694 132 q 565 11 621 39 q 436 -17 510 -17 q 283 24 343 -17 q 206 124 224 64 l 206 -361 l 108 -361 l 108 639 l 185 639 l 196 519 l 201 519 q 242 570 218 544 q 299 615 267 596 q 369 647 331 635 q 451 660 407 660 m 426 578 q 302 542 360 578 q 206 438 244 506 l 206 233 q 242 163 218 193 q 297 110 265 132 q 363 76 328 88 q 435 65 399 65 q 519 85 483 65 q 580 139 556 104 q 617 219 604 174 q 629 318 629 265 q 617 415 629 368 q 581 499 606 463 q 517 556 556 535 q 426 578 479 578 z "},"¶":{"ha":740,"x_min":49,"x_max":603,"o":"m 396 344 l 367 344 q 225 367 285 344 q 126 429 165 390 q 68 519 88 468 q 49 629 49 571 q 72 756 49 701 q 140 849 96 811 q 245 905 183 886 q 382 924 307 924 q 487 922 431 924 q 603 917 543 919 l 603 -119 l 540 -119 l 540 832 l 465 832 l 465 -119 l 396 -119 l 396 344 z "},"(":{"ha":432,"x_min":69,"x_max":403,"o":"m 403 1053 q 306 922 346 989 q 242 783 267 856 q 206 628 217 710 q 194 454 194 547 q 199 328 194 397 q 225 183 204 260 q 288 23 246 106 q 401 -144 329 -60 l 350 -162 q 143 117 217 -43 q 69 454 69 276 q 143 790 69 632 q 350 1071 217 949 l 403 1053 z "},")":{"ha":432,"x_min":29,"x_max":363,"o":"m 82 1071 q 289 790 215 949 q 363 454 363 632 q 289 117 363 276 q 82 -162 215 -43 l 31 -144 q 144 23 103 -60 q 207 183 186 106 q 233 328 228 260 q 238 454 238 397 q 226 628 238 547 q 190 783 215 710 q 126 922 165 856 q 29 1053 86 989 l 82 1071 z "},"⁰":{"ha":565,"x_min":79,"x_max":488,"o":"m 283 924 q 370 903 332 924 q 434 847 408 882 q 474 766 460 813 q 488 668 488 719 q 474 571 488 618 q 433 488 460 524 q 367 430 407 451 q 278 408 328 408 q 192 428 229 408 q 129 483 154 449 q 92 565 104 518 q 79 663 79 611 q 93 765 79 717 q 133 848 107 813 q 197 903 160 883 q 283 924 235 924 m 279 471 q 339 486 314 471 q 380 528 364 501 q 403 590 396 554 q 411 665 411 625 q 379 807 411 753 q 281 861 347 861 q 185 808 213 861 q 157 671 157 754 q 189 521 157 571 q 279 471 221 471 z "},".":{"ha":326,"x_min":99,"x_max":229,"o":"m 99 49 q 117 95 99 75 q 163 115 135 115 q 209 95 189 115 q 229 49 229 75 q 209 3 229 22 q 163 -15 189 -15 q 117 3 135 -15 q 99 49 99 22 z "},"·":{"ha":336,"x_min":103,"x_max":233,"o":"m 103 338 q 122 384 103 364 q 168 404 140 404 q 213 384 193 404 q 233 338 233 364 q 213 292 233 311 q 168 274 193 274 q 122 292 140 274 q 103 338 103 311 z "},"+":{"ha":690,"x_min":71,"x_max":619,"o":"m 381 368 l 619 368 l 619 296 l 381 296 l 381 57 l 308 57 l 308 296 l 71 296 l 71 368 l 308 368 l 308 593 l 381 593 l 381 368 z "},"±":{"ha":671,"x_min":114,"x_max":557,"o":"m 371 488 l 557 488 l 557 414 l 371 414 l 371 254 l 299 254 l 299 414 l 114 414 l 114 488 l 299 488 l 299 632 l 371 632 l 371 488 m 557 171 l 557 97 l 114 97 l 114 171 l 557 171 z "},"q":{"ha":799,"x_min":67,"x_max":690,"o":"m 343 660 q 428 647 389 660 q 499 615 468 635 q 556 571 531 596 q 597 519 581 546 l 603 519 l 614 639 l 690 639 l 690 -361 l 593 -361 l 593 124 q 515 24 575 64 q 363 -17 456 -17 q 233 11 289 -17 q 141 85 178 39 q 85 194 104 132 q 67 324 67 256 q 84 451 67 390 q 136 558 101 513 q 222 632 171 604 q 343 660 274 660 m 372 578 q 281 556 319 578 q 218 499 243 535 q 181 415 193 463 q 169 318 169 368 q 182 219 169 265 q 219 139 194 174 q 279 85 243 104 q 364 65 315 65 q 435 76 400 65 q 502 110 471 88 q 557 163 533 132 q 593 233 581 193 l 593 438 q 497 542 554 506 q 372 578 439 578 z "},"?":{"ha":572,"x_min":56,"x_max":499,"o":"m 190 50 q 209 97 190 78 q 254 115 228 115 q 301 97 281 115 q 321 50 321 78 q 301 4 321 24 q 254 -15 281 -15 q 209 4 228 -15 q 190 50 190 24 m 56 885 q 149 933 93 914 q 257 953 204 953 q 358 936 313 953 q 434 890 403 919 q 482 819 465 861 q 499 728 499 778 q 484 649 499 686 q 447 576 469 613 q 398 501 424 539 q 349 420 372 464 q 311 325 326 376 q 296 210 296 274 l 207 210 q 221 333 207 279 q 256 431 235 388 q 303 511 278 475 q 349 581 328 547 q 385 651 371 615 q 399 729 399 686 q 363 824 399 785 q 256 863 328 863 q 208 857 233 863 q 160 842 183 851 q 115 820 136 833 q 81 793 94 807 l 56 885 z "},"¿":{"ha":558,"x_min":64,"x_max":507,"o":"m 372 594 q 353 548 372 567 q 308 529 335 529 q 262 548 282 529 q 242 594 242 567 q 262 640 242 621 q 308 660 282 660 q 353 640 335 660 q 372 594 372 621 m 507 -240 q 414 -289 469 -269 q 306 -308 358 -308 q 205 -292 250 -308 q 128 -246 160 -275 q 81 -175 97 -217 q 64 -83 64 -133 q 78 -5 64 -42 q 116 69 93 32 q 165 143 139 106 q 213 224 190 181 q 251 319 236 268 q 267 435 267 371 l 356 435 q 342 311 356 365 q 306 213 328 257 q 260 133 285 169 q 213 63 235 97 q 178 -7 192 29 q 164 -85 164 -43 q 199 -179 164 -140 q 307 -218 235 -218 q 354 -212 329 -218 q 403 -198 379 -207 q 447 -176 426 -189 q 482 -149 467 -164 l 507 -240 z "},"\"":{"ha":464,"x_min":82,"x_max":385,"o":"m 111 717 l 82 1017 l 194 1017 l 161 717 l 111 717 m 301 717 l 272 1017 l 385 1017 l 351 717 l 301 717 z "},"„":{"ha":561,"x_min":94,"x_max":447,"o":"m 94 -108 l 149 -7 l 114 -7 l 114 118 l 224 118 l 224 -28 l 122 -135 l 94 -108 m 318 -108 l 372 -7 l 338 -7 l 338 118 l 447 118 l 447 -28 l 346 -135 l 318 -108 z "},"“":{"ha":521,"x_min":101,"x_max":439,"o":"m 231 993 l 176 892 l 211 892 l 211 767 l 101 767 l 101 913 l 203 1019 l 231 993 m 439 993 l 385 892 l 419 892 l 419 767 l 310 767 l 310 913 l 411 1019 l 439 993 z "},"”":{"ha":493,"x_min":86,"x_max":424,"o":"m 294 793 l 349 894 l 314 894 l 314 1019 l 424 1019 l 424 874 l 322 767 l 294 793 m 86 793 l 140 894 l 106 894 l 106 1019 l 215 1019 l 215 874 l 114 767 l 86 793 z "},"‘":{"ha":313,"x_min":101,"x_max":231,"o":"m 231 993 l 176 892 l 211 892 l 211 767 l 101 767 l 101 913 l 203 1019 l 231 993 z "},"’":{"ha":285,"x_min":86,"x_max":215,"o":"m 86 793 l 140 894 l 106 894 l 106 1019 l 215 1019 l 215 874 l 114 767 l 86 793 z "},"‚":{"ha":338,"x_min":94,"x_max":224,"o":"m 94 -108 l 149 -7 l 114 -7 l 114 118 l 224 118 l 224 -28 l 122 -135 l 94 -108 z "},"'":{"ha":274,"x_min":82,"x_max":194,"o":"m 111 717 l 82 1017 l 194 1017 l 161 717 l 111 717 z "},"r":{"ha":496,"x_min":108,"x_max":482,"o":"m 453 536 q 408 556 431 549 q 365 564 386 564 q 313 549 338 564 q 267 507 288 533 q 230 446 246 481 q 206 374 214 411 l 206 0 l 108 0 l 108 639 l 185 639 l 196 499 l 201 499 q 227 560 211 531 q 266 611 243 589 q 318 647 289 633 q 385 660 347 660 q 440 651 411 660 q 482 628 469 642 l 453 536 z "},"®":{"ha":1007,"x_min":82,"x_max":925,"o":"m 503 908 q 667 876 590 908 q 801 786 744 843 q 892 653 858 729 q 925 492 925 578 q 892 327 925 404 q 801 194 858 250 q 665 105 743 138 q 496 72 586 72 q 335 106 411 72 q 203 196 260 139 q 115 329 147 253 q 82 492 82 406 q 115 653 82 578 q 205 786 147 729 q 339 876 263 843 q 503 908 415 908 m 503 851 q 363 824 428 851 q 249 747 297 796 q 174 632 201 697 q 147 492 147 567 q 174 349 147 415 q 249 234 201 283 q 360 157 297 185 q 497 129 424 129 q 641 157 575 129 q 756 233 707 185 q 832 348 804 282 q 860 492 860 414 q 832 632 860 567 q 756 747 804 697 q 643 824 708 796 q 503 851 578 851 m 364 736 q 422 738 388 738 q 482 739 457 739 q 551 733 519 739 q 606 712 583 726 q 642 672 629 697 q 654 610 654 647 q 625 533 654 567 q 544 485 596 499 l 685 279 l 608 279 l 471 481 l 431 481 l 431 279 l 364 279 l 364 736 m 485 686 q 456 685 469 686 q 431 685 443 685 l 431 531 q 457 529 443 529 q 486 529 471 529 q 558 551 532 529 q 585 615 585 574 q 562 667 585 647 q 485 686 539 686 z "},"˚":{"ha":228,"x_min":0,"x_max":228,"o":"m 114 949 q 198 916 168 949 q 228 844 228 883 q 199 778 228 808 q 115 747 171 747 q 65 756 86 747 q 28 780 43 765 q 7 812 14 794 q 0 847 0 829 q 30 917 0 886 q 114 949 60 949 m 115 781 q 159 801 143 781 q 175 844 175 821 q 158 892 175 869 q 113 915 140 915 q 67 894 82 915 q 51 849 51 872 q 69 802 51 824 q 115 781 88 781 z "},"s":{"ha":613,"x_min":65,"x_max":554,"o":"m 296 582 q 199 558 229 582 q 169 492 169 533 q 174 463 169 478 q 190 434 178 447 q 222 409 201 421 q 275 390 242 397 l 374 368 q 467 334 432 356 q 522 288 503 313 q 548 237 542 263 q 554 189 554 211 q 537 108 554 146 q 487 43 519 71 q 407 -1 454 15 q 301 -17 360 -17 q 165 5 228 -17 q 65 53 103 26 l 90 143 q 201 76 140 97 q 311 56 263 56 q 417 90 381 56 q 453 161 453 124 q 451 190 453 174 q 440 222 450 206 q 411 253 431 239 q 356 276 392 268 l 222 310 q 147 339 176 321 q 101 378 118 357 q 78 424 85 400 q 71 474 71 449 q 134 609 71 558 q 303 660 197 660 q 419 645 357 660 q 525 603 482 631 l 499 519 q 416 563 471 543 q 296 582 361 582 z "},"š":{"ha":613,"x_min":65,"x_max":554,"o":"m 294 757 l 140 894 l 138 903 l 144 931 l 156 935 l 299 849 l 443 935 l 454 931 l 461 903 l 458 894 l 304 757 l 294 757 m 296 582 q 199 558 229 582 q 169 492 169 533 q 174 463 169 478 q 190 434 178 447 q 222 409 201 421 q 275 390 242 397 l 374 368 q 467 334 432 356 q 522 288 503 313 q 548 237 542 263 q 554 189 554 211 q 537 108 554 146 q 487 43 519 71 q 407 -1 454 15 q 301 -17 360 -17 q 165 5 228 -17 q 65 53 103 26 l 90 143 q 201 76 140 97 q 311 56 263 56 q 417 90 381 56 q 453 161 453 124 q 451 190 453 174 q 440 222 450 206 q 411 253 431 239 q 356 276 392 268 l 222 310 q 147 339 176 321 q 101 378 118 357 q 78 424 85 400 q 71 474 71 449 q 134 609 71 558 q 303 660 197 660 q 419 645 357 660 q 525 603 482 631 l 499 519 q 416 563 471 543 q 296 582 361 582 z "},"§":{"ha":611,"x_min":64,"x_max":547,"o":"m 383 100 q 360 172 383 140 q 301 233 336 204 q 224 292 265 263 q 147 353 182 321 q 88 426 111 386 q 64 517 64 465 q 88 617 64 569 q 153 696 113 665 q 136 782 136 733 q 155 872 136 833 q 203 935 174 910 q 269 972 233 960 q 340 985 306 985 q 425 969 381 985 q 500 932 469 954 l 465 839 q 405 882 440 867 q 335 897 369 897 q 260 872 293 897 q 228 797 228 846 q 251 725 228 757 q 310 664 275 693 q 388 606 346 635 q 465 544 429 576 q 524 472 500 511 q 547 381 547 432 q 523 279 547 328 q 458 201 499 231 q 470 160 465 182 q 475 115 475 139 q 456 26 475 64 q 408 -37 438 -12 q 342 -75 378 -62 q 271 -87 306 -87 q 186 -72 231 -87 q 111 -35 142 -57 l 146 58 q 206 15 171 31 q 276 0 242 0 q 351 26 318 0 q 383 100 383 51 m 461 347 q 431 426 461 392 q 357 494 400 461 q 267 560 314 526 q 186 639 219 594 q 158 597 167 621 q 150 550 150 572 q 180 469 150 504 q 253 403 210 435 q 343 336 296 371 q 425 257 390 301 q 453 299 444 275 q 461 347 461 324 z "},";":{"ha":353,"x_min":104,"x_max":246,"o":"m 115 567 q 133 613 115 593 q 179 632 151 632 q 226 613 206 632 q 246 567 246 593 q 226 520 246 539 q 179 501 206 501 q 133 520 151 501 q 115 567 115 539 m 104 -108 l 158 -7 l 124 -7 l 124 118 l 233 118 l 233 -28 l 132 -135 l 104 -108 z "},"/":{"ha":589,"x_min":50,"x_max":540,"o":"m 154 -79 l 50 -79 l 436 975 l 540 975 l 154 -79 z "}," ":{"ha":340,"x_min":0,"x_max":0,"o":""},"£":{"ha":788,"x_min":47,"x_max":729,"o":"m 251 71 q 338 59 294 68 q 426 40 382 50 q 515 21 471 29 q 606 13 560 13 q 669 19 640 13 q 729 39 697 25 l 703 -62 q 644 -85 668 -81 q 590 -90 621 -90 q 492 -76 540 -90 q 395 -44 443 -61 q 298 -13 347 -28 q 194 1 249 1 q 143 -5 181 1 q 67 -43 106 -11 l 47 22 q 139 81 101 46 q 199 158 176 115 q 233 249 222 200 q 243 347 243 297 l 243 368 l 107 368 l 107 440 l 238 440 q 221 565 231 504 q 211 675 211 626 q 235 790 211 743 q 297 867 258 838 q 382 910 335 897 q 475 924 429 924 q 597 903 539 924 q 692 856 656 883 l 667 764 q 586 812 639 792 q 478 832 533 832 q 409 820 436 832 q 366 788 382 808 q 343 738 350 767 q 336 678 336 710 q 345 570 336 631 q 358 440 354 510 l 551 440 l 551 368 l 361 368 q 331 219 358 297 q 249 75 304 140 l 251 71 z "},"t":{"ha":435,"x_min":31,"x_max":410,"o":"m 138 574 l 31 574 l 31 625 l 140 639 l 161 832 l 235 832 l 235 639 l 385 639 l 385 574 l 235 574 l 235 131 q 248 72 235 86 q 289 58 261 58 q 346 68 321 58 q 390 92 371 78 l 410 18 q 348 -4 386 7 q 264 -15 310 -15 q 194 -3 219 -15 q 157 31 169 10 q 141 77 144 51 q 138 128 138 103 l 138 574 z "},"þ":{"ha":799,"x_min":108,"x_max":732,"o":"m 451 660 q 575 632 522 660 q 663 558 628 604 q 715 452 697 513 q 732 325 732 392 q 713 194 732 256 q 658 85 694 132 q 565 11 621 39 q 436 -17 510 -17 q 283 24 343 -17 q 206 124 224 64 l 206 -361 l 108 -361 l 108 1028 l 206 1028 l 206 519 q 244 568 219 543 q 299 613 268 593 q 369 647 331 633 q 451 660 407 660 m 426 578 q 302 542 360 578 q 206 438 244 506 l 206 233 q 242 163 218 193 q 297 110 265 132 q 363 76 328 88 q 435 65 399 65 q 519 85 483 65 q 580 139 556 104 q 617 219 604 174 q 629 318 629 265 q 617 415 629 368 q 581 499 606 463 q 517 556 556 535 q 426 578 479 578 z "},"³":{"ha":496,"x_min":78,"x_max":414,"o":"m 111 882 q 169 912 139 900 q 232 924 199 924 q 347 890 307 924 q 388 793 388 857 q 364 737 388 763 q 308 696 340 711 q 385 651 357 681 q 414 571 414 621 q 403 510 414 539 q 367 458 392 481 q 306 422 343 435 q 218 408 269 408 q 140 422 169 408 q 78 461 110 436 l 94 517 q 149 478 124 493 q 215 464 174 464 q 314 494 283 464 q 344 578 344 525 q 317 644 344 619 q 214 668 290 668 l 197 668 l 197 715 l 218 715 q 294 738 269 715 q 318 800 318 760 q 303 849 318 831 q 238 868 288 868 q 174 856 200 868 q 126 828 147 844 l 111 882 z "},"˜":{"ha":432,"x_min":0,"x_max":432,"o":"m 432 921 q 419 883 428 901 q 395 849 410 864 q 360 824 381 833 q 310 814 339 814 q 197 824 254 814 q 94 833 139 833 q 46 824 60 833 q 18 799 32 815 l 0 810 q 15 847 6 828 q 40 881 25 867 q 76 906 54 896 q 126 915 97 915 q 187 913 161 915 q 235 906 213 910 q 278 899 257 901 q 325 896 299 896 q 372 901 349 896 q 415 932 396 907 l 432 921 z "},"™":{"ha":960,"x_min":89,"x_max":842,"o":"m 492 804 l 492 513 l 439 513 l 439 907 l 506 907 l 642 571 l 776 907 l 842 907 l 842 513 l 788 513 l 788 803 l 671 513 l 608 513 l 492 804 m 388 853 l 271 853 l 271 513 l 206 513 l 206 853 l 89 853 l 89 907 l 388 907 l 388 853 z "},"²":{"ha":521,"x_min":90,"x_max":418,"o":"m 111 856 q 182 904 143 885 q 261 924 221 924 q 374 886 335 924 q 413 789 413 849 q 391 703 413 743 q 335 626 369 664 q 259 552 301 589 q 175 474 217 515 l 418 474 l 418 415 l 90 415 l 90 474 q 167 553 124 515 q 248 630 210 592 q 313 707 286 668 q 340 788 340 746 q 337 814 340 800 q 324 840 333 828 q 300 860 315 851 q 260 868 285 868 q 187 847 224 868 q 126 794 150 825 l 111 856 z "},"u":{"ha":756,"x_min":101,"x_max":647,"o":"m 199 639 l 199 217 q 209 144 199 174 q 237 98 219 115 q 278 73 254 81 q 332 65 303 65 q 401 76 367 65 q 464 107 435 86 q 515 158 493 128 q 550 229 538 189 l 550 639 l 647 639 l 647 0 l 571 0 l 560 119 l 554 119 q 474 22 536 61 q 318 -17 411 -17 q 234 -6 274 -17 q 165 31 194 6 q 119 99 136 57 q 101 204 101 142 l 101 639 l 199 639 z "},"ú":{"ha":756,"x_min":101,"x_max":647,"o":"m 238 767 l 231 794 l 235 804 l 485 944 q 521 929 508 943 q 533 896 533 915 q 529 869 533 883 l 249 763 l 238 767 m 199 639 l 199 217 q 209 144 199 174 q 237 98 219 115 q 278 73 254 81 q 332 65 303 65 q 401 76 367 65 q 464 107 435 86 q 515 158 493 128 q 550 229 538 189 l 550 639 l 647 639 l 647 0 l 571 0 l 560 119 l 554 119 q 474 22 536 61 q 318 -17 411 -17 q 234 -6 274 -17 q 165 31 194 6 q 119 99 136 57 q 101 204 101 142 l 101 639 l 199 639 z "},"û":{"ha":756,"x_min":101,"x_max":647,"o":"m 375 935 l 529 797 l 532 788 l 525 761 l 514 757 l 369 842 l 226 757 l 215 761 l 208 788 l 211 797 l 365 935 l 375 935 m 199 639 l 199 217 q 209 144 199 174 q 237 98 219 115 q 278 73 254 81 q 332 65 303 65 q 401 76 367 65 q 464 107 435 86 q 515 158 493 128 q 550 229 538 189 l 550 639 l 647 639 l 647 0 l 571 0 l 560 119 l 554 119 q 474 22 536 61 q 318 -17 411 -17 q 234 -6 274 -17 q 165 31 194 6 q 119 99 136 57 q 101 204 101 142 l 101 639 l 199 639 z "},"ü":{"ha":756,"x_min":101,"x_max":647,"o":"m 203 869 q 219 913 203 894 q 260 932 236 932 q 301 913 283 932 q 318 869 318 894 q 301 826 318 843 q 260 808 283 808 q 219 826 236 808 q 203 869 203 843 m 421 869 q 438 913 421 894 q 478 932 454 932 q 519 913 501 932 q 536 869 536 894 q 519 826 536 843 q 478 808 501 808 q 438 826 454 808 q 421 869 421 843 m 199 639 l 199 217 q 209 144 199 174 q 237 98 219 115 q 278 73 254 81 q 332 65 303 65 q 401 76 367 65 q 464 107 435 86 q 515 158 493 128 q 550 229 538 189 l 550 639 l 647 639 l 647 0 l 571 0 l 560 119 l 554 119 q 474 22 536 61 q 318 -17 411 -17 q 234 -6 274 -17 q 165 31 194 6 q 119 99 136 57 q 101 204 101 142 l 101 639 l 199 639 z "},"ù":{"ha":756,"x_min":101,"x_max":647,"o":"m 463 763 l 183 869 q 178 896 178 882 q 190 929 178 915 q 226 944 203 943 l 476 804 l 481 794 l 474 767 l 463 763 m 199 639 l 199 217 q 209 144 199 174 q 237 98 219 115 q 278 73 254 81 q 332 65 303 65 q 401 76 367 65 q 464 107 435 86 q 515 158 493 128 q 550 229 538 189 l 550 639 l 647 639 l 647 0 l 571 0 l 560 119 l 554 119 q 474 22 536 61 q 318 -17 411 -17 q 234 -6 274 -17 q 165 31 194 6 q 119 99 136 57 q 101 204 101 142 l 101 639 l 199 639 z "},"_":{"ha":679,"x_min":39,"x_max":640,"o":"m 640 0 l 640 -72 l 39 -72 l 39 0 l 640 0 z "},"­":{"ha":676,"x_min":103,"x_max":572,"o":"m 572 368 l 569 296 l 103 296 l 106 368 l 572 368 z "},"v":{"ha":724,"x_min":10,"x_max":714,"o":"m 424 0 l 300 0 l 10 639 l 115 639 l 364 92 l 613 639 l 714 639 l 424 0 z "},"w":{"ha":1142,"x_min":22,"x_max":1126,"o":"m 878 0 l 746 0 l 572 500 l 389 0 l 257 0 l 22 639 l 125 639 l 325 94 l 525 639 l 628 639 l 815 94 l 1028 639 l 1126 639 l 878 0 z "},"x":{"ha":718,"x_min":25,"x_max":693,"o":"m 360 396 l 561 639 l 679 639 l 417 329 l 693 0 l 575 0 l 357 260 l 143 0 l 25 0 l 300 326 l 39 639 l 157 639 l 360 396 z "},"y":{"ha":721,"x_min":-3,"x_max":704,"o":"m 411 -6 q 361 -110 390 -50 q 292 -225 332 -171 q 197 -317 251 -279 q 75 -356 143 -356 q 58 -355 64 -356 q 46 -351 53 -354 l 28 -260 q 38 -262 32 -261 q 57 -264 43 -264 q 109 -258 85 -264 q 157 -236 133 -253 q 245 -135 206 -201 q 317 21 285 -68 l -3 639 l 113 639 l 367 107 l 594 639 l 704 639 l 411 -6 z "},"ý":{"ha":721,"x_min":-3,"x_max":704,"o":"m 274 767 l 265 794 l 269 804 l 519 944 q 556 929 543 943 q 568 896 568 915 q 567 883 568 890 q 564 869 567 876 l 283 763 l 274 767 m 411 -6 q 361 -110 390 -50 q 292 -225 332 -171 q 197 -317 251 -279 q 75 -356 143 -356 q 58 -355 64 -356 q 46 -351 53 -354 l 28 -260 q 38 -262 32 -261 q 57 -264 43 -264 q 109 -258 85 -264 q 157 -236 133 -253 q 245 -135 206 -201 q 317 21 285 -68 l -3 639 l 113 639 l 367 107 l 594 639 l 704 639 l 411 -6 z "},"ÿ":{"ha":721,"x_min":-3,"x_max":704,"o":"m 185 869 q 201 913 185 894 q 242 932 218 932 q 283 913 265 932 q 300 869 300 894 q 283 826 300 843 q 242 808 265 808 q 201 826 218 808 q 185 869 185 843 m 403 869 q 419 913 403 894 q 460 932 436 932 q 501 913 483 932 q 518 869 518 894 q 501 826 518 843 q 460 808 483 808 q 419 826 436 808 q 403 869 403 843 m 411 -6 q 361 -110 390 -50 q 292 -225 332 -171 q 197 -317 251 -279 q 75 -356 143 -356 q 58 -355 64 -356 q 46 -351 53 -354 l 28 -260 q 38 -262 32 -261 q 57 -264 43 -264 q 109 -258 85 -264 q 157 -236 133 -253 q 245 -135 206 -201 q 317 21 285 -68 l -3 639 l 113 639 l 367 107 l 594 639 l 704 639 l 411 -6 z "},"¥":{"ha":901,"x_min":43,"x_max":858,"o":"m 400 354 l 400 371 l 363 428 l 161 428 l 161 500 l 315 500 l 43 917 l 167 917 l 457 476 l 738 917 l 858 917 l 585 500 l 743 500 l 743 428 l 538 428 l 504 376 l 504 354 l 743 354 l 743 282 l 504 282 l 504 0 l 400 0 l 400 282 l 161 282 l 161 354 l 400 354 z "},"z":{"ha":579,"x_min":58,"x_max":522,"o":"m 58 83 l 396 557 l 72 557 l 72 639 l 508 639 l 508 558 l 168 82 l 522 82 l 522 0 l 58 0 l 58 83 z "},"ž":{"ha":579,"x_min":58,"x_max":522,"o":"m 278 757 l 125 894 l 121 903 l 129 931 l 139 935 l 283 849 l 428 935 l 438 931 l 446 903 l 442 894 l 289 757 l 278 757 m 58 83 l 396 557 l 72 557 l 72 639 l 508 639 l 508 558 l 168 82 l 522 82 l 522 0 l 58 0 l 58 83 z "},"ﬁ":{"ha":726,"x_min":35,"x_max":621,"o":"m 142 574 l 35 574 l 35 625 l 142 638 q 160 849 142 772 q 208 967 178 926 q 277 1023 240 1011 q 350 1035 314 1035 q 475 1012 419 1035 q 568 965 531 989 l 521 882 q 415 942 458 921 q 332 963 372 963 q 283 949 301 963 q 256 907 265 936 q 242 832 246 878 q 239 722 239 786 l 239 639 l 389 639 l 389 574 l 239 574 l 239 0 l 142 0 l 142 574 m 621 0 l 524 0 l 524 639 l 621 639 l 621 0 z "},"ﬂ":{"ha":746,"x_min":35,"x_max":629,"o":"m 142 574 l 35 574 l 35 625 l 142 638 q 149 767 142 713 q 169 860 157 821 q 197 924 182 899 q 226 967 211 950 q 297 1021 261 1007 q 365 1035 333 1035 q 401 1034 379 1035 q 452 1030 424 1033 q 514 1019 481 1026 q 581 999 547 1011 l 629 1028 l 629 0 l 532 0 l 532 924 q 442 953 493 943 q 339 963 390 963 q 298 950 317 963 q 266 910 279 938 q 246 836 253 882 q 239 722 239 790 l 239 639 l 389 639 l 389 574 l 239 574 l 239 0 l 142 0 l 142 574 z "},"∕":{"ha":718,"x_min":-7,"x_max":726,"o":"m 83 -33 l -7 -33 l 636 960 l 726 960 l 83 -33 z "},"₀":{"ha":585,"x_min":89,"x_max":497,"o":"m 293 508 q 380 488 342 508 q 444 432 418 467 q 483 351 469 397 q 497 253 497 304 q 483 156 497 203 q 443 72 469 108 q 377 15 417 36 q 288 -7 338 -7 q 201 13 239 -7 q 139 68 164 33 q 101 149 114 103 q 89 247 89 196 q 103 349 89 301 q 143 433 117 397 q 207 488 169 468 q 293 508 244 508 m 289 56 q 349 71 324 56 q 390 113 374 86 q 413 174 406 139 q 421 250 421 210 q 389 392 421 338 q 290 446 357 446 q 194 392 222 446 q 167 256 167 339 q 199 106 167 156 q 289 56 231 56 z "},"₁":{"ha":357,"x_min":64,"x_max":236,"o":"m 236 0 l 161 0 l 161 397 l 82 358 l 64 417 l 236 508 l 236 0 z "},"₂":{"ha":492,"x_min":76,"x_max":404,"o":"m 97 440 q 168 489 129 469 q 247 508 207 508 q 360 471 321 508 q 399 374 399 433 q 377 288 399 328 q 322 211 356 249 q 245 137 288 174 q 161 58 203 100 l 404 58 l 404 0 l 76 0 l 76 58 q 153 138 110 100 q 234 215 196 176 q 299 292 272 253 q 326 372 326 331 q 323 399 326 385 q 310 424 319 413 q 286 444 301 436 q 246 453 271 453 q 173 431 210 453 q 113 379 136 410 l 97 440 z "},"₃":{"ha":497,"x_min":72,"x_max":408,"o":"m 106 467 q 163 497 133 485 q 226 508 193 508 q 342 475 301 508 q 382 378 382 442 q 358 322 382 347 q 303 281 335 296 q 380 235 351 265 q 408 156 408 206 q 397 94 408 124 q 362 42 386 65 q 301 6 338 19 q 213 -7 264 -7 q 134 7 164 -7 q 72 46 104 21 l 89 101 q 143 63 118 78 q 210 49 168 49 q 308 79 278 49 q 339 163 339 110 q 312 228 339 204 q 208 253 285 253 l 192 253 l 192 300 l 213 300 q 288 322 264 300 q 313 385 313 344 q 297 434 313 415 q 232 453 282 453 q 168 441 194 453 q 121 413 142 429 l 106 467 z "},"₄":{"ha":461,"x_min":57,"x_max":378,"o":"m 378 154 l 328 154 l 328 0 l 265 0 l 265 154 l 57 154 l 57 213 l 261 508 l 328 508 l 328 213 l 378 213 l 378 154 m 265 213 l 265 426 l 128 213 l 265 213 z "},"½":{"ha":993,"x_min":51,"x_max":931,"o":"m 224 415 l 149 415 l 149 813 l 69 774 l 51 832 l 224 924 l 224 415 m 175 -33 l 85 -33 l 728 960 l 818 960 l 175 -33 m 624 438 q 694 486 656 467 q 774 506 733 506 q 886 468 847 506 q 925 371 925 431 q 903 285 925 325 q 848 208 882 246 q 772 134 814 171 q 688 56 729 97 l 931 56 l 931 -3 l 603 -3 l 603 56 q 679 135 636 97 q 760 212 722 174 q 826 289 799 250 q 853 369 853 328 q 849 396 853 382 q 837 422 846 410 q 813 442 828 433 q 772 450 797 450 q 699 428 736 450 q 639 376 663 407 l 624 438 z "},"⅓":{"ha":988,"x_min":51,"x_max":931,"o":"m 628 467 q 685 497 656 485 q 749 508 715 508 q 864 475 824 508 q 904 378 904 442 q 881 322 904 347 q 825 281 857 296 q 902 235 874 265 q 931 156 931 206 q 919 94 931 124 q 884 42 908 65 q 823 6 860 19 q 735 -7 786 -7 q 656 7 686 -7 q 594 46 626 21 l 611 101 q 665 63 640 78 q 732 49 690 49 q 831 79 800 49 q 861 163 861 110 q 834 228 861 204 q 731 253 807 253 l 714 253 l 714 300 l 735 300 q 810 322 786 300 q 835 385 835 344 q 819 434 835 415 q 754 453 804 453 q 690 441 717 453 q 643 413 664 429 l 628 467 m 175 -33 l 85 -33 l 728 960 l 818 960 l 175 -33 m 224 415 l 149 415 l 149 813 l 69 774 l 51 832 l 224 924 l 224 415 z "},"¼":{"ha":988,"x_min":49,"x_max":928,"o":"m 928 153 l 878 153 l 878 -1 l 815 -1 l 815 153 l 607 153 l 607 211 l 811 507 l 878 507 l 878 211 l 928 211 l 928 153 m 815 211 l 815 425 l 678 211 l 815 211 m 200 -33 l 110 -33 l 753 960 l 843 960 l 200 -33 m 221 415 l 146 415 l 146 813 l 67 774 l 49 832 l 221 924 l 221 415 z "},"¾":{"ha":1042,"x_min":51,"x_max":982,"o":"m 85 881 q 142 910 113 899 q 206 922 172 922 q 321 889 281 922 q 361 792 361 856 q 338 735 361 761 q 282 694 314 710 q 359 649 331 679 q 388 569 388 619 q 376 508 388 538 q 341 456 365 479 q 280 420 317 433 q 192 407 243 407 q 113 421 143 407 q 51 460 83 435 l 68 515 q 122 477 97 492 q 189 463 147 463 q 288 493 257 463 q 318 576 318 524 q 291 642 318 618 q 188 667 264 667 l 171 667 l 171 714 l 192 714 q 267 736 243 714 q 292 799 292 758 q 276 848 292 829 q 211 867 261 867 q 147 855 174 867 q 100 826 121 843 l 85 881 m 982 153 l 932 153 l 932 -1 l 869 -1 l 869 153 l 661 153 l 661 211 l 865 507 l 932 507 l 932 211 l 982 211 l 982 153 m 869 211 l 869 425 l 732 211 l 869 211 m 274 -33 l 183 -33 l 826 960 l 917 960 l 274 -33 z "},"%":{"ha":1136,"x_min":54,"x_max":1085,"o":"m 258 924 q 345 903 307 924 q 409 847 383 882 q 449 766 435 813 q 463 668 463 719 q 449 571 463 618 q 408 488 435 524 q 342 430 382 451 q 253 408 303 408 q 167 428 204 408 q 104 483 129 449 q 67 565 79 518 q 54 663 54 611 q 68 765 54 717 q 108 848 82 813 q 172 903 135 883 q 258 924 210 924 m 254 471 q 314 486 289 471 q 355 528 339 501 q 378 590 371 554 q 386 665 386 625 q 354 807 386 753 q 256 861 322 861 q 160 808 188 861 q 132 671 132 754 q 164 521 132 571 q 254 471 196 471 m 290 -33 l 200 -33 l 843 960 l 933 960 l 290 -33 m 881 506 q 967 485 929 506 q 1031 429 1006 464 q 1071 348 1057 394 q 1085 250 1085 301 q 1071 153 1085 200 q 1031 69 1057 106 q 965 12 1004 33 q 875 -10 925 -10 q 789 10 826 -10 q 726 65 751 31 q 689 147 701 100 q 676 244 676 193 q 690 347 676 299 q 731 430 704 394 q 794 485 757 465 q 881 506 832 506 m 876 53 q 936 68 911 53 q 977 110 961 83 q 1001 172 993 136 q 1008 247 1008 207 q 976 389 1008 335 q 878 443 944 443 q 782 390 810 443 q 754 253 754 336 q 786 103 754 153 q 876 53 818 53 z "},"‰":{"ha":1636,"x_min":57,"x_max":1588,"o":"m 261 924 q 348 903 310 924 q 412 847 386 882 q 451 766 438 813 q 465 668 465 719 q 451 571 465 618 q 411 488 438 524 q 345 430 385 451 q 256 408 306 408 q 169 428 207 408 q 107 483 132 449 q 69 565 82 518 q 57 663 57 611 q 71 765 57 717 q 111 848 85 813 q 175 903 138 883 q 261 924 213 924 m 257 471 q 317 486 292 471 q 358 528 342 501 q 381 590 374 554 q 389 665 389 625 q 357 807 389 753 q 258 861 325 861 q 163 808 190 861 q 135 671 135 754 q 167 521 135 571 q 257 471 199 471 m 293 -33 l 203 -33 l 846 960 l 936 960 l 293 -33 m 883 506 q 970 485 932 506 q 1034 429 1008 464 q 1074 348 1060 394 q 1088 250 1088 301 q 1074 153 1088 200 q 1033 69 1060 106 q 967 12 1007 33 q 878 -10 928 -10 q 792 10 829 -10 q 729 65 754 31 q 692 147 704 100 q 679 244 679 193 q 693 347 679 299 q 733 430 707 394 q 797 485 760 465 q 883 506 835 506 m 879 53 q 939 68 914 53 q 980 110 964 83 q 1003 172 996 136 q 1011 247 1011 207 q 979 389 1011 335 q 881 443 947 443 q 785 390 813 443 q 757 253 757 336 q 789 103 757 153 q 879 53 821 53 m 1383 506 q 1470 485 1432 506 q 1534 429 1508 464 q 1574 348 1560 394 q 1588 250 1588 301 q 1574 153 1588 200 q 1533 69 1560 106 q 1467 12 1507 33 q 1378 -10 1428 -10 q 1292 10 1329 -10 q 1229 65 1254 31 q 1192 147 1204 100 q 1179 244 1179 193 q 1193 347 1179 299 q 1233 430 1207 394 q 1297 485 1260 465 q 1383 506 1335 506 m 1379 53 q 1439 68 1414 53 q 1480 110 1464 83 q 1503 172 1496 136 q 1511 247 1511 207 q 1479 389 1511 335 q 1381 443 1447 443 q 1285 390 1313 443 q 1257 253 1257 336 q 1289 103 1257 153 q 1379 53 1321 53 z "},"⅔":{"ha":1054,"x_min":63,"x_max":993,"o":"m 83 856 q 154 904 115 885 q 233 924 193 924 q 346 886 307 924 q 385 789 385 849 q 363 703 385 743 q 308 626 342 664 q 231 552 274 589 q 147 474 189 515 l 390 474 l 390 415 l 63 415 l 63 474 q 139 553 96 515 q 220 630 182 592 q 285 707 258 668 q 313 788 313 746 q 309 814 313 800 q 297 840 306 828 q 272 860 288 851 q 232 868 257 868 q 159 847 196 868 q 99 794 122 825 l 83 856 m 272 -33 l 182 -33 l 825 960 l 915 960 l 272 -33 m 690 467 q 748 497 718 485 q 811 508 778 508 q 926 475 886 508 q 967 378 967 442 q 943 322 967 347 q 888 281 919 296 q 965 235 936 265 q 993 156 993 206 q 982 94 993 124 q 947 42 971 65 q 885 6 922 19 q 797 -7 849 -7 q 719 7 749 -7 q 657 46 689 21 l 674 101 q 728 63 703 78 q 794 49 753 49 q 893 79 863 49 q 924 163 924 110 q 897 228 924 204 q 793 253 869 253 l 776 253 l 776 300 l 797 300 q 873 322 849 300 q 897 385 897 344 q 882 434 897 415 q 817 453 867 453 q 753 441 779 453 q 706 413 726 429 l 690 467 z "},"Đ":{"ha":981,"x_min":19,"x_max":901,"o":"m 19 453 l 19 514 l 140 514 l 140 917 l 147 917 q 292 922 214 919 q 443 924 369 924 q 623 896 542 924 q 761 819 704 868 q 868 657 835 753 q 901 449 901 561 q 875 270 901 354 q 794 122 849 186 q 656 21 739 58 q 458 -17 572 -17 q 281 -12 360 -17 q 140 0 203 -7 l 140 453 l 19 453 m 488 514 l 488 453 l 244 453 l 244 83 q 454 75 332 75 q 703 172 619 75 q 786 460 786 269 q 769 612 786 543 q 712 729 751 681 q 608 805 672 778 q 451 832 544 832 q 342 831 396 832 q 244 828 289 831 l 244 514 l 488 514 z "},"μ":{"ha":767,"x_min":7,"x_max":658,"o":"m 210 639 l 210 217 q 220 144 210 174 q 248 98 231 115 q 290 73 265 81 q 343 65 314 65 q 412 76 378 65 q 475 107 446 86 q 526 158 504 128 q 561 229 549 189 l 561 639 l 658 639 l 658 0 l 582 0 l 571 119 l 565 119 q 485 22 547 61 q 329 -17 422 -17 q 244 -6 285 -17 q 175 32 204 6 l 171 14 q 96 -194 147 -89 l 7 -154 q 51 -65 32 -107 q 84 21 71 -22 q 105 108 97 64 q 113 204 113 153 l 113 639 l 210 639 z "},"ĸ":{"ha":658,"x_min":108,"x_max":642,"o":"m 369 414 l 642 0 l 531 0 l 301 347 l 206 251 l 206 0 l 108 0 l 108 639 l 206 639 l 206 369 l 486 639 l 597 639 l 369 414 z "},"ə":{"ha":718,"x_min":68,"x_max":653,"o":"m 324 -17 q 135 45 201 -17 q 68 219 68 107 q 71 267 68 243 q 81 303 74 292 l 549 303 l 549 317 q 535 418 549 369 q 493 504 521 467 q 423 564 465 542 q 322 586 381 586 q 257 578 289 586 q 196 559 225 571 q 142 533 167 547 q 97 506 117 519 l 81 585 q 125 609 99 596 q 183 633 151 622 q 253 652 215 644 q 333 660 292 660 q 471 633 411 660 q 571 559 531 606 q 632 451 611 513 q 653 324 653 390 q 631 193 653 254 q 568 85 610 132 q 465 10 526 38 q 324 -17 403 -17 m 328 61 q 469 108 418 61 q 538 229 519 156 l 160 229 q 158 217 158 222 q 158 204 158 211 q 172 142 158 168 q 210 97 186 115 q 264 70 233 79 q 328 61 294 61 z "},"−":{"ha":786,"x_min":106,"x_max":681,"o":"m 681 368 l 681 296 l 106 296 l 106 368 l 681 368 z "},"Ĳ":{"ha":758,"x_min":138,"x_max":622,"o":"m 242 0 l 138 0 l 138 917 l 242 917 l 242 0 m 622 140 q 608 2 622 67 q 563 -111 593 -62 q 488 -188 533 -160 q 381 -217 443 -217 l 361 -140 q 447 -114 415 -140 q 494 -47 479 -87 q 514 44 510 -6 q 518 142 518 94 l 518 917 l 622 917 l 622 140 z "},"ĳ":{"ha":631,"x_min":88,"x_max":546,"o":"m 206 0 l 108 0 l 108 639 l 206 639 l 206 0 m 88 872 q 108 922 88 900 q 157 944 128 944 q 207 922 185 944 q 229 872 229 900 q 207 823 229 843 q 157 803 185 803 q 108 823 128 803 q 88 872 88 843 m 522 -4 q 509 -140 522 -75 q 469 -253 496 -204 q 403 -330 443 -301 q 310 -358 363 -358 q 279 -354 288 -358 l 257 -274 q 288 -278 265 -278 q 363 -251 335 -278 q 404 -183 390 -224 q 422 -94 418 -143 q 425 -3 425 -46 l 425 639 l 522 639 l 522 -4 m 404 872 q 424 922 404 900 q 474 944 444 944 q 524 922 501 944 q 546 872 546 900 q 524 823 546 843 q 474 803 501 803 q 424 823 444 803 q 404 872 404 843 z "},"\r":{"ha":340,"x_min":0,"x_max":0,"o":""}," ":{"ha":340,"x_min":0,"x_max":0,"o":""},"\u0000":{"ha":0,"x_min":0,"x_max":0,"o":""}}}
